<?xml version="1.0" encoding="UTF-8"?>
<svg width="43px" height="34px" viewBox="0 0 43 34" version="1.1" xmlns="http://www.w3.org/2000/svg" xmlns:xlink="http://www.w3.org/1999/xlink">
    <!-- Generator: sketchtool 55 (78076) - https://sketchapp.com -->
    <title>79FE31A9-BF14-4594-8886-1D4D2F054DC4@2x</title>
    <desc>Created with sketchtool.</desc>
    <g id="clinup" stroke="none" stroke-width="1" fill="none" fill-rule="evenodd">
        <g id="EMCsy" transform="translate(-445.000000, -874.000000)" fill-rule="nonzero">
            <g id="icon-block" transform="translate(-382.000000, 425.000000)">
                <g id="1" transform="translate(818.000000, 435.000000)">
                    <g id="Chart">
                        <g transform="translate(9.000000, 14.000000)">
                            <path d="M1.26948336,18.4042052 C3.90981153,18.3989036 4.67907514,19.0533772 5.76976233,21.5099907 C5.80635756,21.5924162 5.99059139,22.010535 6.04411381,22.1308104 C6.15601109,22.3822655 6.25050609,22.5890934 6.34646487,22.7906092 C6.45851407,23.0259154 7.48200891,26.5517548 7.91081779,27.7637775 C9.25077263,31.5511423 10.7579145,33.7517531 13.0870003,33.8636259 C15.6143041,33.9850198 17.2790594,31.4689816 18.9473778,26.8376386 C19.4096259,25.5544125 20.5603715,21.8993975 20.6130504,21.7469459 C20.6316178,21.6931434 20.6316178,21.6931434 20.6501589,21.6391497 C20.8371333,21.0940121 21.5037492,19.0508451 21.6384345,18.6513368 C23.0842086,14.362832 24.3224974,12.4747333 25.8740233,12.508717 C27.276766,12.5394419 28.2612994,14.0188407 29.714375,18.082399 C29.7445549,18.1667977 30.3767093,19.9572217 30.5713576,20.491734 C32.0811883,24.6257886 33.65197,25.3891671 38.6671198,25.5110789 C39.9234711,25.5416191 40.3505607,25.5548648 41.0604485,25.5922588 C41.7141317,25.6266922 42.2721077,25.1274738 42.3067228,24.4772233 C42.341338,23.8269728 41.8394842,23.2719269 41.185801,23.2374935 C40.4454844,23.1984967 40.0045464,23.1848214 38.7250307,23.1537181 C34.5795147,23.0529461 33.9100239,22.7275827 32.8243287,19.7549222 C32.6102103,19.1670403 31.9814153,17.3861312 31.9477987,17.2921216 C30.1450589,12.2507197 28.7895922,10.2139418 25.9262071,10.1512239 C22.822623,10.0832448 21.1848159,12.5805146 19.3909371,17.9015799 C19.2505226,18.3180822 18.5865174,20.3532474 18.4066332,20.8777132 C18.3889422,20.9292308 18.3889422,20.9292308 18.3712749,20.9804255 C18.30237,21.1798346 17.157882,24.8149743 16.7158081,26.0421954 C15.4366554,29.5931931 14.1396849,31.5533776 13.2013309,31.5083056 C12.2651775,31.4633394 11.1637744,29.8551567 10.1468915,26.9809503 C9.77410947,25.9272869 8.69823146,22.2209926 8.48878701,21.781154 C8.4027006,21.6003704 8.31610871,21.4108406 8.21174725,21.17632 C8.16043572,21.0610129 7.97674454,20.6441256 7.93820855,20.5573289 C6.50429334,17.3276444 4.98923837,16.0386669 1.26469842,16.0461455 C0.610100716,16.0474598 0.080515571,16.576395 0.0818368943,17.2275552 C0.0831582176,17.8787154 0.614885651,18.4055196 1.26948336,18.4042052 Z" id="Line-9" fill="#7ED321"></path>
                            <path d="M25.4272013,8.27413017 C23.2691193,8.27413017 21.5196482,6.53384604 21.5196482,4.38709677 C21.5196482,2.24034751 23.2691193,0.500063382 25.4272013,0.500063382 C27.5852834,0.500063382 29.3347545,2.24034751 29.3347545,4.38709677 C29.3347545,6.53384604 27.5852834,8.27413017 25.4272013,8.27413017 Z M25.4272013,5.91606565 C26.2760853,5.91606565 26.9642417,5.23152297 26.9642417,4.38709677 C26.9642417,3.54267058 26.2760853,2.8581279 25.4272013,2.8581279 C24.5783174,2.8581279 23.890161,3.54267058 23.890161,4.38709677 C23.890161,5.23152297 24.5783174,5.91606565 25.4272013,5.91606565 Z" id="Oval-2" fill="#F8E71C"></path>
                        </g>
                    </g>
                </g>
            </g>
        </g>
    </g>
</svg>