<?xml version="1.0" encoding="UTF-8"?>
<svg width="38px" height="38px" viewBox="0 0 38 38" version="1.1" xmlns="http://www.w3.org/2000/svg" xmlns:xlink="http://www.w3.org/1999/xlink">
    <!-- Generator: sketchtool 55 (78076) - https://sketchapp.com -->
    <title>7A73CBAF-9596-4685-AF52-5ECB79A874A1@2x</title>
    <desc>Created with sketchtool.</desc>
    <g id="clinup" stroke="none" stroke-width="1" fill="none" fill-rule="evenodd">
        <g id="EMCsy" transform="translate(-953.000000, -870.000000)" fill-rule="nonzero">
            <g id="icon-block" transform="translate(-382.000000, 425.000000)">
                <g id="3" transform="translate(1325.000000, 435.000000)">
                    <g id="Search">
                        <g transform="translate(10.000000, 10.000000)">
                            <path d="M30.6847486,32.4504589 L35.1847486,36.9504589 C35.657039,37.4227493 36.4227729,37.4227493 36.8950632,36.9504589 C37.3673535,36.4781686 37.3673535,35.7124347 36.8950632,35.2401444 L32.3950632,30.7401444 C31.9227729,30.2678541 31.157039,30.2678541 30.6847486,30.7401444 C30.2124583,31.2124347 30.2124583,31.9781686 30.6847486,32.4504589 Z" id="Line-8" fill="#F8E71C"></path>
                            <path d="M17.75,0.790625 C27.1037305,0.790625 34.709375,8.39771768 34.709375,17.75 C34.709375,27.1008344 27.1008344,34.709375 17.75,34.709375 C8.39916557,34.709375 0.790625,27.1008344 0.790625,17.75 C0.790625,8.39771768 8.39626954,0.790625 17.75,0.790625 Z M17.75,3.209375 C9.73221137,3.209375 3.209375,9.73345335 3.209375,17.75 C3.209375,25.7649957 9.73500431,32.290625 17.75,32.290625 C25.7649957,32.290625 32.290625,25.7649957 32.290625,17.75 C32.290625,9.73345335 25.7677886,3.209375 17.75,3.209375 Z" id="Path" fill="#7ED321"></path>
                        </g>
                    </g>
                </g>
            </g>
        </g>
    </g>
</svg>