<?xml version="1.0" encoding="UTF-8"?>
<svg width="39px" height="36px" viewBox="0 0 39 36" version="1.1" xmlns="http://www.w3.org/2000/svg" xmlns:xlink="http://www.w3.org/1999/xlink">
    <!-- Generator: sketchtool 55 (78076) - https://sketchapp.com -->
    <title>7B1DDBB0-1301-4DDC-9D9E-D7415CEAC879@2x</title>
    <desc>Created with sketchtool.</desc>
    <g id="clinup" stroke="none" stroke-width="1" fill="none" fill-rule="evenodd">
        <g id="EMCsy" transform="translate(-446.000000, -1165.000000)" fill-rule="nonzero">
            <g id="icon-block" transform="translate(-382.000000, 425.000000)">
                <g id="2" transform="translate(818.000000, 727.000000)">
                    <g id="Chat">
                        <g transform="translate(10.000000, 13.000000)">
                            <path d="M9.06884146,15.1265911 C9.06884146,16.4354075 10.1695658,17.4964129 11.527378,17.4964129 C12.8851903,17.4964129 13.9859146,16.4354075 13.9859146,15.1265911 C13.9859146,13.8177746 12.8851903,12.7567693 11.527378,12.7567693 C10.1695658,12.7567693 9.06884146,13.8177746 9.06884146,15.1265911 Z" id="Shape" fill="#F8E71C"></path>
                            <path d="M18.0847561,15.1265911 C18.0847561,16.4354075 19.1854804,17.4964129 20.5432927,17.4964129 C21.9011049,17.4964129 23.0018293,16.4354075 23.0018293,15.1265911 C23.0018293,13.8177746 21.9011049,12.7567693 20.5432927,12.7567693 C19.1854804,12.7567693 18.0847561,13.8177746 18.0847561,15.1265911 Z" id="Shape" fill="#F8E71C"></path>
                            <path d="M27.1006707,15.1265911 C27.1006707,16.4354075 28.2013951,17.4964129 29.5592073,17.4964129 C30.9170196,17.4964129 32.0177439,16.4354075 32.0177439,15.1265911 C32.0177439,13.8177746 30.9170196,12.7567693 29.5592073,12.7567693 C28.2013951,12.7567693 27.1006707,13.8177746 27.1006707,15.1265911 Z" id="Shape" fill="#F8E71C"></path>
                            <path d="M16.6820112,27.2965517 L34.2524303,27.2965517 C35.4484719,27.2965517 36.4180553,26.3455428 36.4180553,25.1724138 L36.4180553,5.31034483 C36.4180553,4.13721584 35.4484719,3.1862069 34.2524303,3.1862069 L5.375,3.1862069 C4.17895834,3.1862069 3.209375,4.13721584 3.209375,5.31034483 L3.209375,25.1724138 C3.209375,26.3455428 4.17895834,27.2965517 5.375,27.2965517 L12.4985228,27.2965517 L12.4985228,31.2725003 L16.6820112,27.2965517 Z M5.375,29.6689655 C2.8431196,29.6689655 0.790625,27.6557907 0.790625,25.1724138 L0.790625,5.31034483 C0.790625,2.82696788 2.8431196,0.813793103 5.375,0.813793103 L34.2524303,0.813793103 C36.7843107,0.813793103 38.8368053,2.82696788 38.8368053,5.31034483 L38.8368053,25.1724138 C38.8368053,27.6557907 36.7843107,29.6689655 34.2524303,29.6689655 L17.6616228,29.6689655 L12.3215016,34.7441673 C11.7972025,35.2424563 10.9603416,35.2295133 10.4523204,34.7152582 C10.2133818,34.4733877 10.0797728,34.1498148 10.0797728,33.8130262 L10.0797728,29.6689655 L5.375,29.6689655 Z" id="Rectangle-5" fill="#7ED321"></path>
                        </g>
                    </g>
                </g>
            </g>
        </g>
    </g>
</svg>