<?xml version="1.0" encoding="UTF-8"?>
<svg width="31px" height="36px" viewBox="0 0 31 36" version="1.1" xmlns="http://www.w3.org/2000/svg" xmlns:xlink="http://www.w3.org/1999/xlink">
    <!-- Generator: sketchtool 55 (78076) - https://sketchapp.com -->
    <title>1CD2D814-3652-419D-A731-58D9559F1C6F@2x</title>
    <desc>Created with sketchtool.</desc>
    <g id="clinup" stroke="none" stroke-width="1" fill="none" fill-rule="evenodd">
        <g id="EMCsy" transform="translate(-958.000000, -1164.000000)">
            <g id="icon-block" transform="translate(-382.000000, 425.000000)">
                <g id="4" transform="translate(1325.000000, 727.000000)">
                    <g id="Setting">
                        <g transform="translate(15.000000, 12.000000)">
                            <path d="M16.1000392,0.445287171 L29.9410607,8.56529362 C30.4000735,8.83457919 30.6820429,9.32691095 30.6820429,9.8590834 L30.6820429,26.1409166 C30.6820429,26.6730891 30.4000735,27.1654208 29.9410607,27.4347064 L16.1000392,35.5547128 C15.6313762,35.8296598 15.0506667,35.8296598 14.5820037,35.5547128 L0.740982218,27.4347064 C0.281969362,27.1654208 -1.41664458e-13,26.6730891 -1.4033219e-13,26.1409166 L-1.48325796e-13,9.8590834 C-1.49213975e-13,9.32691095 0.281969362,8.83457919 0.740982218,8.56529362 L14.5820037,0.445287171 C15.0506667,0.170340217 15.6313762,0.170340217 16.1000392,0.445287171 Z M15.7314013,3.07082625 C15.4814477,2.92418787 15.171736,2.92418787 14.9217824,3.07082625 L2.77779551,10.1952464 C2.53298866,10.3388653 2.382605,10.6014423 2.382605,10.8852676 L2.382605,25.1564119 C2.382605,25.4402373 2.53298866,25.7028142 2.77779551,25.8464332 L14.9217824,32.9708533 C15.171736,33.1174916 15.4814477,33.1174916 15.7314013,32.9708533 L27.8753882,25.8464332 C28.120195,25.7028142 28.2705787,25.4402373 28.2705787,25.1564119 L28.2705787,10.8852676 C28.2705787,10.6014423 28.120195,10.3388653 27.8753882,10.1952464 L15.7314013,3.07082625 Z" id="Combined-Shape" fill="#7ED321"></path>
                            <path d="M15.4218126,23.7093749 C12.3186627,23.7093749 9.8030627,21.1532007 9.8030627,18 C9.8030627,14.8467993 12.3186627,12.2906251 15.4218126,12.2906251 C18.5249625,12.2906251 21.0405625,14.8467993 21.0405625,18 C21.0405625,21.1532007 18.5249625,23.7093749 15.4218126,23.7093749 Z M15.4218126,21.2906251 C17.2103276,21.2906251 18.6602056,19.817362 18.6602056,18 C18.6602056,16.182638 17.2103276,14.7093749 15.4218126,14.7093749 C13.6332976,14.7093749 12.1834197,16.182638 12.1834197,18 C12.1834197,19.817362 13.6332976,21.2906251 15.4218126,21.2906251 Z" id="Oval-10" fill="#F8E71C" fill-rule="nonzero"></path>
                        </g>
                    </g>
                </g>
            </g>
        </g>
    </g>
</svg>