<?xml version="1.0" encoding="UTF-8"?>
<svg width="78px" height="38px" viewBox="0 0 78 38" version="1.1" xmlns="http://www.w3.org/2000/svg" xmlns:xlink="http://www.w3.org/1999/xlink">
    <!-- Generator: sketchtool 52.3 (67297) - http://www.bohemiancoding.com/sketch -->
    <title>BEFC6E4E-96B5-4248-853D-FDD092D642B6@2x</title>
    <desc>Created with sketchtool.</desc>
    <g id="pages" stroke="none" stroke-width="1" fill="none" fill-rule="evenodd">
        <g id="EXTL-about-us" transform="translate(-946.000000, -1509.000000)">
            <g id="icons-block" transform="translate(-2.000000, 1047.000000)">
                <g id="24/7-2-icon" transform="translate(948.000000, 462.000000)">
                    <path d="M10.7621483,10.8449111 C10.5439034,10.3214837 10.2506412,9.88530061 9.88235294,9.53634895 C9.51406465,9.18739729 9.13896184,8.9838452 8.75703325,8.92568659 C7.55668624,8.92568659 6.46547806,9.2673633 5.48337596,9.95072698 C4.50127386,10.6340907 3.60102711,11.4410293 2.7826087,12.371567 C2.4006801,12.6623601 1.99147703,12.8077544 1.55498721,12.8077544 C1.09121678,12.8077544 0.716113964,12.6405509 0.429667519,12.3061389 C0.143221074,11.9717269 0,11.5428136 0,11.0193861 C0,10.5541172 0.122760921,10.1033947 0.368286445,9.66720517 C0.886618107,9.08561906 1.4458623,8.5113114 2.04603581,7.94426494 C2.64620931,7.37721849 3.28729412,6.875608 3.96930946,6.43941842 C4.65132481,6.00322884 5.35379008,5.65428241 6.07672634,5.39256866 C6.79966261,5.13085491 7.54304818,5 8.30690537,5 C9.17988501,5 9.99829115,5.19628237 10.7621483,5.58885299 C11.5260055,5.98142361 12.1875505,6.53392212 12.7468031,7.24636511 C13.3060557,7.95880809 13.749359,8.80936501 14.0767263,9.79806139 C14.4040937,10.7867578 14.5677749,11.8626759 14.5677749,13.0258481 C14.5677749,13.4038791 14.5268546,13.7964438 14.4450128,14.2035541 C14.144926,15.5412022 13.6879826,16.6316598 13.0741688,17.4749596 C12.460355,18.3182595 11.7783499,19.0379615 11.028133,19.6340872 C10.2779161,20.230213 9.50043028,20.7681721 8.69565217,21.2479806 C7.89087407,21.7277892 7.14066844,22.2584785 6.44501279,22.8400646 C5.74935714,23.4216507 5.14237258,24.1268133 4.62404092,24.9555735 C4.10570926,25.7843337 3.7647067,26.8384427 3.60102302,28.1179321 L11.3759591,28.1179321 C11.7033264,28.1179321 11.9488483,28.0670441 12.112532,27.9652666 C12.2762157,27.863489 12.3989766,27.7835221 12.4808184,27.7253635 C12.5353796,27.6672049 12.6786007,27.4927317 12.9104859,27.2019386 C13.1423712,26.9111456 13.3128724,26.7366723 13.4219949,26.6785137 C13.558398,26.5912758 13.7152591,26.5331181 13.8925831,26.5040388 C14.0699071,26.4749595 14.2267683,26.46042 14.3631714,26.46042 C14.8542224,26.46042 15.2497854,26.642163 15.5498721,27.0056543 C15.8499589,27.3691456 16,27.7980589 16,28.2924071 C16,28.6122795 15.9658997,28.8594499 15.8976982,29.0339257 C15.8294967,29.2084015 15.7681162,29.324717 15.713555,29.3828756 C15.1952233,30.1680168 14.5882388,30.8004823 13.8925831,31.2802908 C13.1969275,31.7600993 12.3989815,32 11.4987212,32 L1.75959079,32 C0.695646854,31.8836828 0.109122455,31.2003294 0,29.9499192 C0.0818418414,28.9903021 0.204602762,28.0525086 0.368286445,27.1365105 C0.531970128,26.2205124 0.763851867,25.3336069 1.06393862,24.4757674 C1.36402537,23.6179279 1.74594824,22.818259 2.20971867,22.0767367 C2.6734891,21.3352144 3.2600135,20.6591307 3.96930946,20.0484653 C4.59676358,19.5250378 5.319689,19.030697 6.13810742,18.5654281 C6.95652583,18.1001592 7.73401166,17.5840093 8.47058824,17.0169628 C9.20716481,16.4499164 9.83460951,15.7883721 10.3529412,15.0323102 C10.8712728,14.2762482 11.1304348,13.3602639 11.1304348,12.2843296 C11.1304348,11.9935365 11.0758744,11.6882084 10.9667519,11.368336 C10.8576295,11.0484637 10.789429,10.8739905 10.7621483,10.8449111 Z M34.022779,30.9760766 C33.9954441,31.6363669 33.8109356,32.1387543 33.4692483,32.4832536 C33.1275609,32.8277529 32.7380432,33 32.3006834,33 C31.9179935,33 31.5694777,32.8492838 31.2551253,32.5478469 C30.9407729,32.24641 30.7425972,31.7655535 30.6605923,31.1052632 L30.6605923,26.3253589 C29.1024979,26.2966506 27.5649279,26.2751197 26.047836,26.2607656 C24.5307441,26.2464114 23.1025124,26.2248805 21.7630979,26.1961722 C20.5876934,26.0526309 20,25.4354122 20,24.3444976 C20,24.2009562 20.0273346,24.0143552 20.0820046,23.784689 C21.5854289,20.9425695 23.102498,18.1507314 24.6332574,15.4090909 C26.1640168,12.6674504 27.6947532,9.88996622 29.2255125,7.07655502 C29.4441924,6.70334742 29.6970373,6.43062287 29.9840547,6.25837321 C30.2710721,6.08612354 30.5649188,6 30.8656036,6 C31.2482935,6 31.6104767,6.15789316 31.952164,6.47368421 C32.2938514,6.78947526 32.4646925,7.22009297 32.4646925,7.76555024 C32.4646925,8.02392474 32.3826887,8.32535713 32.2186788,8.66985646 C30.9339344,10.9952269 29.6560428,13.3205625 28.3849658,15.645933 C27.1138889,17.9713035 25.8359973,20.2966391 24.5512528,22.6220096 C25.4806425,22.6507178 26.4578536,22.6722487 27.4829157,22.6866029 C28.5079778,22.700957 29.5671927,22.7224879 30.6605923,22.7511962 L30.6605923,17.9712919 C30.7972672,17.3971263 31.0091102,16.9736856 31.2961276,16.7009569 C31.5831449,16.4282283 31.9179935,16.291866 32.3006834,16.291866 C32.6833732,16.291866 33.0318891,16.4138744 33.3462415,16.6578947 C33.6605938,16.9019151 33.8861041,17.296648 34.022779,17.8421053 L34.022779,22.7942584 L36.4419134,22.7942584 C36.9886132,22.9952163 37.3849646,23.2535869 37.6309795,23.569378 C37.8769944,23.885169 38,24.2296632 38,24.6028708 C38,25.0047867 37.8564935,25.3708117 37.5694761,25.7009569 C37.2824587,26.0311021 36.8656064,26.2679419 36.3189066,26.4114833 L35.2118451,26.4114833 C34.8291553,26.4114833 34.4328039,26.3971293 34.022779,26.3684211 L34.022779,30.9760766 Z M68.0814978,31.5605816 C67.8861958,32.0549298 67.635097,32.4184156 67.3281938,32.6510501 C67.0212907,32.8836845 66.7004422,33 66.3656388,33 C65.9750348,33 65.6123365,32.8400662 65.277533,32.5201939 C64.9427296,32.2003215 64.7474305,31.7350596 64.69163,31.1243942 C64.8590317,29.3505566 65.1798802,27.4895089 65.654185,25.5411955 C66.1284899,23.592882 66.7143871,21.6736767 67.4118943,19.7835218 C68.1094014,17.893367 68.9184976,16.0686679 69.839207,14.30937 C70.7599165,12.550072 71.7364119,10.9725433 72.7687225,9.57673667 L60.7995595,9.57673667 C60.1857532,9.48949876 59.7323803,9.27140724 59.4394273,8.92245557 C59.1464743,8.57350391 59,8.19547861 59,7.78836834 C59,7.35217876 59.1604242,6.95234431 59.4812775,6.58885299 C59.8021308,6.22536167 60.2834035,6.02907931 60.9251101,6 L76.5352423,6 C77.5117523,6.26171375 78,6.84329113 78,7.7447496 C78,8.00646334 77.9302503,8.3263309 77.7907489,8.70436187 C77.4001449,9.19871006 77.0165217,9.68578112 76.6398678,10.1655897 C76.263214,10.6453982 75.8935407,11.1470087 75.530837,11.6704362 C74.5822273,13.0953221 73.6894315,14.6074233 72.8524229,16.2067851 C72.0154143,17.8061469 71.2690929,19.449103 70.6134361,21.1357027 C69.9577794,22.8223025 69.413732,24.5452255 68.9812775,26.3045234 C68.5488231,28.0638214 68.2488995,29.8158233 68.0814978,31.5605816 Z" id="24/7" fill="#FFFFFF"></path>
                    <path d="M55.3149606,1.26992288 C55.8189002,0.423303393 56.4330672,1.13686838e-13 57.1574803,1.13686838e-13 C57.6299236,1.13686838e-13 58.0551162,0.179089897 58.4330709,0.537275064 C58.8110255,0.895460231 59,1.36760632 59,1.95372751 C59,2.2467881 58.9212606,2.60496789 58.7637795,3.02827763 C56.401563,8.72667802 54.031508,14.3924311 51.6535433,20.0257069 C49.2755787,25.6589828 46.8897757,31.3247359 44.496063,37.0231362 C44.2440932,37.3813214 43.9606315,37.6336754 43.6456693,37.7802057 C43.3307071,37.926736 43.0314975,38 42.7480315,38 C42.2755882,38 41.8661435,37.8209101 41.519685,37.4627249 C41.1732266,37.1045398 41,36.5998319 41,35.9485861 L41,35.6311054 C41,35.5171374 41.0157479,35.3950306 41.0472441,35.2647815 C43.4094606,29.5663811 45.7795157,23.900628 48.1574803,18.2673522 C50.535445,12.6340764 52.9212479,6.96832326 55.3149606,1.26992288 Z" id="Path" fill="#333333"></path>
                </g>
            </g>
        </g>
    </g>
</svg>