<?xml version="1.0" encoding="UTF-8"?>
<svg width="102px" height="50px" viewBox="0 0 102 50" version="1.1" xmlns="http://www.w3.org/2000/svg" xmlns:xlink="http://www.w3.org/1999/xlink">
    <!-- Generator: sketchtool 52.3 (67297) - http://www.bohemiancoding.com/sketch -->
    <title>798A6529-6361-413D-AA9D-F45125524D37@2x</title>
    <desc>Created with sketchtool.</desc>
    <g id="pages" stroke="none" stroke-width="1" fill="none" fill-rule="evenodd">
        <g id="EXTL-about-us" transform="translate(-1028.000000, -2116.000000)" fill-rule="nonzero">
            <g id="count-block" transform="translate(21.000000, 1863.000000)">
                <g id="count-copy-3" transform="translate(922.000000, 253.000000)">
                    <g id="arrow_icon" transform="translate(136.000000, 25.000000) scale(-1, 1) rotate(90.000000) translate(-136.000000, -25.000000) translate(111.000000, -26.000000)">
                        <path d="M10,4.86805522 L2.50346,11.6149412 C1.88769496,12.1691297 0.93926021,12.1192121 0.385071681,11.5034471 C-0.169116849,10.8876821 -0.11919923,9.93924731 0.496565802,9.38505878 L10.4965658,0.385058781 C11.0670233,-0.128352927 11.9330025,-0.128352927 12.50346,0.385058781 L22.50346,9.38505878 C23.119225,9.93924731 23.1691426,10.8876821 22.6149541,11.5034471 C22.0607656,12.1192121 21.1123308,12.1691297 20.4965658,11.6149412 L13,4.868032 L13,52.5 C13,53.3284271 12.3284271,54 11.5,54 C10.6715729,54 10,53.3284271 10,52.5 L10,4.86805522 Z" id="Path-14" fill="#1355F3"></path>
                        <path d="M37,50.8680552 L29.50346,57.6149412 C28.887695,58.1691297 27.9392602,58.1192121 27.3850717,57.5034471 C26.8308832,56.8876821 26.8808008,55.9392473 27.4965658,55.3850588 L37.4965658,46.3850588 C38.0670233,45.8716471 38.9330025,45.8716471 39.50346,46.3850588 L49.50346,55.3850588 C50.119225,55.9392473 50.1691426,56.8876821 49.6149541,57.5034471 C49.0607656,58.1192121 48.1123308,58.1691297 47.4965658,57.6149412 L40,50.868032 L40,100.500013 C40,101.32844 39.3284271,102.000013 38.5,102.000013 C37.6715729,102.000013 37,101.32844 37,100.500013 L37,50.8680552 Z" id="Path-14" fill="#333333" transform="translate(38.500013, 74.000006) scale(1, -1) translate(-38.500013, -74.000006) "></path>
                    </g>
                </g>
            </g>
        </g>
    </g>
</svg>