<?xml version="1.0" encoding="UTF-8"?>
<svg width="16px" height="10px" viewBox="0 0 16 10" version="1.1" xmlns="http://www.w3.org/2000/svg" xmlns:xlink="http://www.w3.org/1999/xlink">
    <!-- Generator: sketchtool 52.3 (67297) - http://www.bohemiancoding.com/sketch -->
    <title>F60156A1-C800-48AD-AEFA-3F1CDAF9FCF4@2x</title>
    <desc>Created with sketchtool.</desc>
    <g id="pages" stroke="none" stroke-width="1" fill="none" fill-rule="evenodd">
        <g id="EXTL" transform="translate(-1158.000000, -2311.000000)" fill="#FFFFFF" fill-rule="nonzero">
            <g id="icon-block" transform="translate(0.000000, 1831.000000)">
                <g id="btn-/-hover" transform="translate(1044.000000, 473.000000)">
                    <g id="arrow" transform="translate(114.000000, 7.000000)">
                        <path d="M12.5857864,4 L10.2928932,1.70710678 C9.90236893,1.31658249 9.90236893,0.683417511 10.2928932,0.292893219 C10.6834175,-0.0976310729 11.3165825,-0.0976310729 11.7071068,0.292893219 L15.7071068,4.29289322 C16.0976311,4.68341751 16.0976311,5.31658249 15.7071068,5.70710678 L11.7071068,9.70710678 C11.3165825,10.0976311 10.6834175,10.0976311 10.2928932,9.70710678 C9.90236893,9.31658249 9.90236893,8.68341751 10.2928932,8.29289322 L12.5857864,6 L1,6 C0.44771525,6 0,5.55228475 0,5 C0,4.44771525 0.44771525,4 1,4 L12.5857864,4 Z" id="Path-9"></path>
                    </g>
                </g>
            </g>
        </g>
    </g>
</svg>