<?xml version="1.0" encoding="UTF-8"?>
<svg width="71px" height="57px" viewBox="0 0 71 57" version="1.1" xmlns="http://www.w3.org/2000/svg" xmlns:xlink="http://www.w3.org/1999/xlink">
    <!-- Generator: sketchtool 52.3 (67297) - http://www.bohemiancoding.com/sketch -->
    <title>CAC22190-15CC-45F2-B715-989636B8A2AA@2x</title>
    <desc>Created with sketchtool.</desc>
    <g id="pages" stroke="none" stroke-width="1" fill="none" fill-rule="evenodd">
        <g id="EXTL-about-us" transform="translate(-223.000000, -1262.000000)" fill-rule="nonzero">
            <g id="icons-block" transform="translate(-2.000000, 1047.000000)">
                <g id="chat-icon-" transform="translate(225.000000, 215.000000)">
                    <path d="M68,23.9672962 L54.8365893,23.9672962 C54.0171931,23.9672962 53.3529412,23.3030443 53.3529412,22.4836481 L53.3529412,22.4836481 C53.3529412,21.6642519 54.0171931,21 54.8365893,21 L68.0959998,21 C69.6998348,21 71,22.2859917 71,23.872343 L71,54.127657 C71,55.7140083 69.6998348,57 68.0959998,57 C67.6819841,57 67.2727542,56.9124387 66.895755,56.7431883 L61.1069227,54.1443446 C60.7299235,53.9750942 60.3206936,53.8875329 59.9066779,53.8875329 L23.9040002,53.8875329 C22.3001652,53.8875329 21,52.6015411 21,51.0151899 L21,38.4601263 C21,37.6316991 21.6715729,36.9601263 22.5,36.9601263 L22.5,36.9601263 C23.3284271,36.9601263 24,37.6316991 24,38.4601263 L24,50.9202367 L59.9066779,50.9202367 C60.7483957,50.9202367 61.5803837,51.0982539 62.3468448,51.4423497 L68,53.9802824 L68,23.9672962 Z M68.1356772,54.0411934 C68.1232144,54.0355984 68.1096862,54.0327038 68.0959998,54.0327038 C68.0429806,54.0327038 68,54.0752158 68,54.127657 L68,53.9802824 L68.1356772,54.0411934 Z M24,50.9202367 L59.9066779,50.9202367 C60.7483957,50.9202367 61.5803837,51.0982539 62.3468448,51.4423497 L68,53.9802824 L68,23.9672962 L54.8365893,23.9672962 C54.0171931,23.9672962 53.3529412,23.3030443 53.3529412,22.4836481 L53.3529412,22.4836481 C53.3529412,21.6642519 54.0171931,21 54.8365893,21 L68.0959998,21 C69.6998348,21 71,22.2859917 71,23.872343 L71,54.127657 C71,55.7140083 69.6998348,57 68.0959998,57 C67.6819841,57 67.2727542,56.9124387 66.895755,56.7431883 L61.1069227,54.1443446 C60.7299235,53.9750942 60.3206936,53.8875329 59.9066779,53.8875329 L23.9040002,53.8875329 C22.3001652,53.8875329 21,52.6015411 21,51.0151899 L21,38.4601263 C21,37.6316991 21.6715729,36.9601263 22.5,36.9601263 L22.5,36.9601263 C23.3284271,36.9601263 24,37.6316991 24,38.4601263 L24,50.9202367 Z M68.1356772,54.0411934 C68.1232144,54.0355984 68.1096862,54.0327038 68.0959998,54.0327038 C68.0429806,54.0327038 68,54.0752158 68,54.127657 L68,53.9802824 L68.1356772,54.0411934 Z" id="Path" fill="#333333"></path>
                    <path d="M3,3 L3,33 L8.65315516,30.4631654 C9.41961628,30.1192185 10.2516043,29.9412783 11.0933221,29.9412783 L47,29.9412783 L47,3 L3,3 Z M2.90400024,-4.84972288e-18 L47.0959998,-4.84972288e-18 C48.6998348,-4.52305811e-15 50,1.2859666 50,2.8722868 L50,30.0146031 C50,31.6009233 48.6998348,32.8868899 47.0959998,32.8868899 L11.0933221,32.8868899 C10.6793064,32.8868899 10.2700765,32.9744495 9.89307734,33.1436965 L4.10424501,35.7424895 C2.64380635,36.3981273 0.922519,35.7586365 0.259642117,34.3141467 C0.0885263763,33.9412646 7.09772457e-16,33.5365037 -4.4408921e-16,33.1270093 L-9.86076132e-32,2.8722868 C-1.96413146e-16,1.2859666 1.30016519,-1.52686917e-16 2.90400024,-4.84972288e-18 Z" id="Rectangle" fill="#FFFFFF"></path>
                </g>
            </g>
        </g>
    </g>
</svg>