<?xml version="1.0" encoding="UTF-8"?>
<svg width="16px" height="12px" viewBox="0 0 16 12" version="1.1" xmlns="http://www.w3.org/2000/svg" xmlns:xlink="http://www.w3.org/1999/xlink">
    <!-- Generator: Sketch 52.3 (67297) - http://www.bohemiancoding.com/sketch -->
    <title>logo@2x</title>
    <desc>Created with Sketch.</desc>
    <g id="pages" stroke="none" stroke-width="1" fill="none" fill-rule="evenodd">
        <g id="fav" transform="translate(0.000000, -2.000000)">
            <g id="logo" transform="translate(8.000000, 8.000000) rotate(90.000000) translate(-8.000000, -8.000000) translate(2.000000, 0.000000)">
                <path d="M4.5,0 L4.88888889,0 L4.88888889,9 L4.5,9 C2.01471863,9 -2.19001013e-14,6.98528137 -2.22044605e-14,4.5 C-2.25088197e-14,2.01471863 2.01471863,4.56538782e-16 4.5,0 Z M8.82222222,0 L8.9,0 C10.059798,-2.13051432e-16 11,0.940202025 11,2.1 C11,3.25979797 10.059798,4.2 8.9,4.2 L8.82222222,4.2 C7.66242425,4.2 6.72222222,3.25979797 6.72222222,2.1 C6.72222222,0.940202025 7.66242425,2.13051432e-16 8.82222222,0 Z" id="Rectangle-3" fill="#303035"></path>
                <path d="M3.17777778,11.8 C4.33757575,11.8 5.27777778,12.740202 5.27777778,13.9 C5.27777778,15.059798 4.33757575,16 3.17777778,16 L3.1,16 C1.94020203,16 1,15.059798 1,13.9 C1,12.740202 1.94020203,11.8 3.1,11.8 L3.17777778,11.8 Z M7.5,7 C9.98528137,7 12,9.01471863 12,11.5 C12,13.9852814 9.98528137,16 7.5,16 L7.11111111,16 L7.11111111,7 L7.5,7 Z" id="Rectangle-Copy-18" fill="#1863F5"></path>
            </g>
        </g>
    </g>
</svg>