<?xml version="1.0" encoding="UTF-8"?>
<svg width="175px" height="63px" viewBox="0 0 175 63" version="1.1" xmlns="http://www.w3.org/2000/svg" xmlns:xlink="http://www.w3.org/1999/xlink">
    <!-- Generator: Sketch 52.3 (67297) - http://www.bohemiancoding.com/sketch -->
    <title>Group@2x</title>
    <desc>Created with Sketch.</desc>
    <g id="pages" stroke="none" stroke-width="1" fill="none" fill-rule="evenodd">
        <g id="EXTL-about-us" transform="translate(-120.000000, -4175.000000)">
            <g id="Group" transform="translate(120.000000, 4175.000000)">
                <path d="M94.1841432,40 C91.4594919,40 88.8150171,39.6634649 86.2506394,38.9903846 C83.6862617,38.3173043 81.6027361,37.4198774 80,36.2980769 L83.1253197,29.2788462 C84.6318916,30.2724409 86.3788477,31.0737149 88.3662404,31.6826923 C90.3536331,32.2916697 92.3089418,32.5961538 94.2322251,32.5961538 C97.8864633,32.5961538 99.713555,31.6827014 99.713555,29.8557692 C99.713555,28.894226 99.1926736,28.1810921 98.1508951,27.7163462 C97.1091167,27.2516002 95.4342826,26.7628231 93.1263427,26.25 C90.5940197,25.7051255 88.4784399,25.1201954 86.7795396,24.4951923 C85.0806394,23.8701892 83.6221715,22.8685966 82.4040921,21.4903846 C81.1860127,20.1121726 80.5769821,18.2532168 80.5769821,15.9134615 C80.5769821,13.8621692 81.1379313,12.0112262 82.2598465,10.3605769 C83.3817618,8.70992764 85.0565959,7.40385096 87.284399,6.44230769 C89.5122021,5.48076442 92.2448261,5 95.4823529,5 C97.6941287,5 99.8738171,5.24839495 102.021483,5.74519231 C104.16915,6.24198966 106.06035,6.97114904 107.695141,7.93269231 L104.762148,15 C101.556676,13.2692221 98.4474149,12.4038462 95.4342711,12.4038462 C93.5430425,12.4038462 92.1647102,12.6842921 91.2992327,13.2451923 C90.4337553,13.8060925 90.001023,14.5352519 90.001023,15.4326923 C90.001023,16.3301327 90.5138909,17.0032029 91.5396419,17.4519231 C92.565393,17.9006433 94.2161864,18.3653822 96.4920716,18.8461538 C99.0564493,19.3910284 101.180043,19.9759584 102.862916,20.6009615 C104.545788,21.2259647 106.004256,22.2195445 107.238363,23.5817308 C108.47247,24.9439171 109.089514,26.7948601 109.089514,29.1346154 C109.089514,31.1538562 108.528565,32.9807611 107.40665,34.6153846 C106.284734,36.2500082 104.601887,37.5560849 102.358056,38.5336538 C100.114226,39.5112228 97.3896153,40 94.1841432,40 Z M128.851151,5.67307692 C131.896349,5.67307692 134.540824,6.17787957 136.784655,7.1875 C139.028485,8.19712043 140.759414,9.6394137 141.977494,11.5144231 C143.195573,13.3894325 143.804604,15.5929361 143.804604,18.125 C143.804604,20.6570639 143.195573,22.8525548 141.977494,24.7115385 C140.759414,26.5705221 139.028485,28.0048026 136.784655,29.0144231 C134.540824,30.0240435 131.896349,30.5288462 128.851151,30.5288462 L122.985166,30.5288462 L122.985166,39.3269231 L113.464962,39.3269231 L113.464962,5.67307692 L128.851151,5.67307692 Z M128.274169,23.0288462 C130.229507,23.0288462 131.704002,22.6041709 132.697698,21.7548077 C133.691395,20.9054445 134.188235,19.6955207 134.188235,18.125 C134.188235,16.5544793 133.691395,15.3365428 132.697698,14.4711538 C131.704002,13.6057649 130.229507,13.1730769 128.274169,13.1730769 L122.985166,13.1730769 L122.985166,23.0288462 L128.274169,23.0288462 Z M148.42046,5.67307692 L157.940665,5.67307692 L157.940665,31.7788462 L174,31.7788462 L174,39.3269231 L148.42046,39.3269231 L148.42046,5.67307692 Z" id="SPL" fill="#FFFFFF"></path>
                <path d="M3.34759913,63 C2.70455428,63 2.08043187,62.9230777 1.47521318,62.7692308 C0.869994488,62.6153838 0.37826168,62.4102577 0,62.1538462 L0.737606588,60.5494505 C1.09317257,60.7765579 1.50547161,60.9597063 1.9745161,61.0989011 C2.44356058,61.2380959 2.90503291,61.3076923 3.35894693,61.3076923 C4.22138356,61.3076923 4.6525954,61.0989032 4.6525954,60.6813187 C4.6525954,60.4615374 4.5296622,60.2985353 4.28379211,60.1923077 C4.03792202,60.0860801 3.64264449,59.9743596 3.09794767,59.8571429 C2.50029422,59.7326001 2.00099629,59.5989018 1.60003891,59.456044 C1.19908153,59.3131861 0.85486856,59.0842507 0.567389683,58.7692308 C0.279910806,58.4542109 0.136173524,58.0293067 0.136173524,57.4945055 C0.136173524,57.0256387 0.268563126,56.602566 0.533346302,56.2252747 C0.798129479,55.8479835 1.19340701,55.5494516 1.71919074,55.3296703 C2.24497448,55.109889 2.88990097,55 3.65398956,55 C4.17599068,55 4.69041885,55.056776 5.1972895,55.1703297 C5.70416015,55.2838834 6.15050224,55.4505484 6.53632915,55.6703297 L5.84411374,57.2857143 C5.08759038,56.8901079 4.35377373,56.6923077 3.64264177,56.6923077 C3.19629298,56.6923077 2.87099282,56.7564096 2.66673151,56.8846154 C2.4624702,57.0128212 2.36034108,57.1794862 2.36034108,57.3846154 C2.36034108,57.5897446 2.481383,57.7435892 2.72347048,57.8461538 C2.96555796,57.9487185 3.35516164,58.0549445 3.89229323,58.1648352 C4.49751192,58.2893779 4.99870112,58.4230762 5.39587589,58.5659341 C5.79305065,58.7087919 6.13726362,58.9358959 6.42852511,59.2472527 C6.71978661,59.5586096 6.86541517,59.9816823 6.86541517,60.5164835 C6.86541517,60.9780243 6.73302557,61.3956025 6.46824239,61.7692308 C6.20345921,62.142859 5.80629041,62.4413908 5.27672406,62.6648352 C4.7471577,62.8882795 4.10412249,63 3.34759913,63 Z M11.7619881,63 C10.9222472,63 10.1676265,62.8278405 9.4981033,62.4835165 C8.82858012,62.1391924 8.30280428,61.6630067 7.92075998,61.0549451 C7.53871568,60.4468834 7.3476964,59.7619086 7.3476964,59 C7.3476964,58.2380914 7.53871568,57.5531166 7.92075998,56.9450549 C8.30280428,56.3369933 8.82858012,55.8608076 9.4981033,55.5164835 C10.1676265,55.1721595 10.9222472,55 11.7619881,55 C12.6017291,55 13.3563498,55.1721595 14.025873,55.5164835 C14.6953961,55.8608076 15.221172,56.3369933 15.6032163,56.9450549 C15.9852606,57.5531166 16.1762799,58.2380914 16.1762799,59 C16.1762799,59.7619086 15.9852606,60.4468834 15.6032163,61.0549451 C15.221172,61.6630067 14.6953961,62.1391924 14.025873,62.4835165 C13.3563498,62.8278405 12.6017291,63 11.7619881,63 Z M11.7619881,61.1978022 C12.1629455,61.1978022 12.5260713,61.106228 12.8513763,60.9230769 C13.1766814,60.7399258 13.4338955,60.4816866 13.6230263,60.1483516 C13.8121571,59.8150166 13.9067211,59.4322366 13.9067211,59 C13.9067211,58.5677634 13.8121571,58.1849834 13.6230263,57.8516484 C13.4338955,57.5183134 13.1766814,57.2600742 12.8513763,57.0769231 C12.5260713,56.893772 12.1629455,56.8021978 11.7619881,56.8021978 C11.3610308,56.8021978 10.997905,56.893772 10.6725999,57.0769231 C10.3472949,57.2600742 10.0900808,57.5183134 9.90094997,57.8516484 C9.71181913,58.1849834 9.61725513,58.5677634 9.61725513,59 C9.61725513,59.4322366 9.71181913,59.8150166 9.90094997,60.1483516 C10.0900808,60.4816866 10.3472949,60.7399258 10.6725999,60.9230769 C10.997905,61.106228 11.3610308,61.1978022 11.7619881,61.1978022 Z M19.4614661,56.8351648 L19.4614661,58.5274725 L22.9679344,58.5274725 L22.9679344,60.2087912 L19.4614661,60.2087912 L19.4614661,62.8461538 L17.214603,62.8461538 L17.214603,55.1538462 L23.4445417,55.1538462 L23.4445417,56.8351648 L19.4614661,56.8351648 Z M26.1055993,56.8791209 L23.6658237,56.8791209 L23.6658237,55.1538462 L30.7808903,55.1538462 L30.7808903,56.8791209 L28.3524625,56.8791209 L28.3524625,62.8461538 L26.1055993,62.8461538 L26.1055993,56.8791209 Z M43.7457446,55.1538462 L41.1697954,62.8461538 L38.7640632,62.8461538 L37.2434588,58.1648352 L35.6547677,62.8461538 L33.2490354,62.8461538 L30.6730863,55.1538462 L32.9880362,55.1538462 L34.5880751,60.0659341 L36.2675486,55.1538462 L38.332847,55.1538462 L39.9328859,60.1098901 L41.6010116,55.1538462 L43.7457446,55.1538462 Z M49.4593587,61.3516484 L46.1004118,61.3516484 L45.4762831,62.8461538 L43.1840288,62.8461538 L46.690497,55.1538462 L48.9033168,55.1538462 L52.4211328,62.8461538 L50.0834873,62.8461538 L49.4593587,61.3516484 Z M48.8011867,59.7472527 L47.7798852,57.2857143 L46.7585838,59.7472527 L48.8011867,59.7472527 Z M56.3871867,60.8021978 L55.161625,60.8021978 L55.161625,62.8461538 L52.9147619,62.8461538 L52.9147619,55.1538462 L56.5460558,55.1538462 C57.264753,55.1538462 57.8888754,55.2692296 58.4184418,55.5 C58.9480081,55.7307704 59.3565246,56.0604374 59.6440035,56.489011 C59.9314824,56.9175846 60.0752197,57.4212425 60.0752197,58 C60.0752197,58.5567793 59.9409388,59.0421225 59.672373,59.456044 C59.4038072,59.8699654 59.0198774,60.194138 58.5205719,60.4285714 L60.2340888,62.8461538 L57.8283565,62.8461538 L56.3871867,60.8021978 Z M57.8056609,58 C57.8056609,57.6410238 57.6884016,57.3626384 57.4538793,57.1648352 C57.2193571,56.967032 56.8713616,56.8681319 56.4098823,56.8681319 L55.161625,56.8681319 L55.161625,59.1208791 L56.4098823,59.1208791 C56.8713616,59.1208791 57.2193571,59.0238105 57.4538793,58.8296703 C57.6884016,58.6355302 57.8056609,58.3589762 57.8056609,58 Z M67.5477418,61.1648352 L67.5477418,62.8461538 L61.1702818,62.8461538 L61.1702818,55.1538462 L67.4002205,55.1538462 L67.4002205,56.8351648 L63.3944493,56.8351648 L63.3944493,58.1318681 L66.9236131,58.1318681 L66.9236131,59.7582418 L63.3944493,59.7582418 L63.3944493,61.1648352 L67.5477418,61.1648352 Z M81.7665273,55.1538462 C82.4852244,55.1538462 83.1093469,55.2692296 83.6389132,55.5 C84.1684796,55.7307704 84.576996,56.0604374 84.8644749,56.489011 C85.1519538,56.9175846 85.2956911,57.4212425 85.2956911,58 C85.2956911,58.5787575 85.1519538,59.080584 84.8644749,59.5054945 C84.576996,59.9304051 84.1684796,60.2582406 83.6389132,60.489011 C83.1093469,60.7197814 82.4852244,60.8351648 81.7665273,60.8351648 L80.3820964,60.8351648 L80.3820964,62.8461538 L78.1352333,62.8461538 L78.1352333,55.1538462 L81.7665273,55.1538462 Z M81.6303537,59.1208791 C82.091833,59.1208791 82.4398285,59.0238105 82.6743507,58.8296703 C82.908873,58.6355302 83.0261323,58.3589762 83.0261323,58 C83.0261323,57.6410238 82.908873,57.3626384 82.6743507,57.1648352 C82.4398285,56.967032 82.091833,56.8681319 81.6303537,56.8681319 L80.3820964,56.8681319 L80.3820964,59.1208791 L81.6303537,59.1208791 Z M91.1681743,61.3516484 L87.8092274,61.3516484 L87.1850987,62.8461538 L84.8928444,62.8461538 L88.3993126,55.1538462 L90.6121324,55.1538462 L94.1299484,62.8461538 L91.792303,62.8461538 L91.1681743,61.3516484 Z M90.5100023,59.7472527 L89.4887008,57.2857143 L88.4673994,59.7472527 L90.5100023,59.7472527 Z M98.3796972,60.0879121 L98.3796972,62.8461538 L96.132834,62.8461538 L96.132834,60.0549451 L93.1029731,55.1538462 L95.474662,55.1538462 L97.3583957,58.2087912 L99.2421295,55.1538462 L101.420906,55.1538462 L98.3796972,60.0879121 Z M108.98421,62.8461538 L108.961515,58.7692308 L106.918912,62.0879121 L105.920306,62.0879121 L103.889051,58.8791209 L103.889051,62.8461538 L101.812405,62.8461538 L101.812405,55.1538462 L103.662095,55.1538462 L106.453652,59.5934066 L109.177123,55.1538462 L111.026813,55.1538462 L111.049509,62.8461538 L108.98421,62.8461538 Z M118.873813,61.1648352 L118.873813,62.8461538 L112.496352,62.8461538 L112.496352,55.1538462 L118.726291,55.1538462 L118.726291,56.8351648 L114.72052,56.8351648 L114.72052,58.1318681 L118.249684,58.1318681 L118.249684,59.7582418 L114.72052,59.7582418 L114.72052,61.1648352 L118.873813,61.1648352 Z M127.537853,55.1538462 L127.537853,62.8461538 L125.688163,62.8461538 L122.181694,58.7472527 L122.181694,62.8461538 L119.980222,62.8461538 L119.980222,55.1538462 L121.829913,55.1538462 L125.336381,59.2527473 L125.336381,55.1538462 L127.537853,55.1538462 Z M130.675518,56.8791209 L128.235742,56.8791209 L128.235742,55.1538462 L135.350809,55.1538462 L135.350809,56.8791209 L132.922381,56.8791209 L132.922381,62.8461538 L130.675518,62.8461538 L130.675518,56.8791209 Z M139.209059,55.1538462 L141.455922,55.1538462 L141.455922,61.1208791 L145.246085,61.1208791 L145.246085,62.8461538 L139.209059,62.8461538 L139.209059,55.1538462 Z M149.870311,63 C149.03057,63 148.275949,62.8278405 147.606426,62.4835165 C146.936903,62.1391924 146.411127,61.6630067 146.029083,61.0549451 C145.647038,60.4468834 145.456019,59.7619086 145.456019,59 C145.456019,58.2380914 145.647038,57.5531166 146.029083,56.9450549 C146.411127,56.3369933 146.936903,55.8608076 147.606426,55.5164835 C148.275949,55.1721595 149.03057,55 149.870311,55 C150.710052,55 151.464673,55.1721595 152.134196,55.5164835 C152.803719,55.8608076 153.329495,56.3369933 153.711539,56.9450549 C154.093583,57.5531166 154.284603,58.2380914 154.284603,59 C154.284603,59.7619086 154.093583,60.4468834 153.711539,61.0549451 C153.329495,61.6630067 152.803719,62.1391924 152.134196,62.4835165 C151.464673,62.8278405 150.710052,63 149.870311,63 Z M149.870311,61.1978022 C150.271268,61.1978022 150.634394,61.106228 150.959699,60.9230769 C151.285004,60.7399258 151.542218,60.4816866 151.731349,60.1483516 C151.92048,59.8150166 152.015044,59.4322366 152.015044,59 C152.015044,58.5677634 151.92048,58.1849834 151.731349,57.8516484 C151.542218,57.5183134 151.285004,57.2600742 150.959699,57.0769231 C150.634394,56.893772 150.271268,56.8021978 149.870311,56.8021978 C149.469354,56.8021978 149.106228,56.893772 148.780923,57.0769231 C148.455618,57.2600742 148.198404,57.5183134 148.009273,57.8516484 C147.820142,58.1849834 147.725578,58.5677634 147.725578,59 C147.725578,59.4322366 147.820142,59.8150166 148.009273,60.1483516 C148.198404,60.4816866 148.455618,60.7399258 148.780923,60.9230769 C149.106228,61.106228 149.469354,61.1978022 149.870311,61.1978022 Z M160.645041,58.8351648 L162.630905,58.8351648 L162.630905,62.021978 C162.176991,62.3369979 161.654998,62.5787537 161.064909,62.7472527 C160.474821,62.9157518 159.884742,63 159.294654,63 C158.462478,63 157.713531,62.829672 157.04779,62.489011 C156.38205,62.1483499 155.860057,61.6739957 155.481795,61.0659341 C155.103533,60.4578724 154.914405,59.7692346 154.914405,59 C154.914405,58.2307654 155.103533,57.5421276 155.481795,56.9340659 C155.860057,56.3260043 156.385832,55.8516501 157.059138,55.510989 C157.732444,55.170328 158.492739,55 159.340045,55 C160.081438,55 160.747168,55.1208779 161.337256,55.3626374 C161.927345,55.6043968 162.419077,55.9523787 162.81247,56.4065934 L161.382648,57.6593407 C160.845516,57.0879092 160.202481,56.8021978 159.453523,56.8021978 C158.772652,56.8021978 158.22418,57.0018295 157.808093,57.4010989 C157.392005,57.8003683 157.183964,58.33333 157.183964,59 C157.183964,59.4249105 157.278528,59.8040276 157.467659,60.1373626 C157.65679,60.4706976 157.921569,60.7307683 158.262004,60.9175824 C158.60244,61.1043965 158.992044,61.1978022 159.430827,61.1978022 C159.862045,61.1978022 160.266779,61.113554 160.645041,60.9450549 L160.645041,58.8351648 Z M163.918879,55.1538462 L166.165743,55.1538462 L166.165743,62.8461538 L163.918879,62.8461538 L163.918879,55.1538462 Z M171.584314,63 C170.752138,63 170.005083,62.829672 169.343125,62.489011 C168.681167,62.1483499 168.161065,61.6739957 167.782803,61.0659341 C167.404542,60.4578724 167.215414,59.7692346 167.215414,59 C167.215414,58.2307654 167.404542,57.5421276 167.782803,56.9340659 C168.161065,56.3260043 168.681167,55.8516501 169.343125,55.510989 C170.005083,55.170328 170.752138,55 171.584314,55 C172.310577,55 172.964959,55.1245409 173.547482,55.3736264 C174.130005,55.6227119 174.614173,55.9816826 175,56.4505495 L173.570178,57.7032967 C173.055742,57.1025611 172.43162,56.8021978 171.697792,56.8021978 C171.266574,56.8021978 170.882644,56.893772 170.545991,57.0769231 C170.209338,57.2600742 169.948341,57.5183134 169.762993,57.8516484 C169.577645,58.1849834 169.484972,58.5677634 169.484972,59 C169.484972,59.4322366 169.577645,59.8150166 169.762993,60.1483516 C169.948341,60.4816866 170.209338,60.7399258 170.545991,60.9230769 C170.882644,61.106228 171.266574,61.1978022 171.697792,61.1978022 C172.43162,61.1978022 173.055742,60.8974389 173.570178,60.2967033 L175,61.5494505 C174.614173,62.0183174 174.130005,62.3772881 173.547482,62.6263736 C172.964959,62.8754591 172.310577,63 171.584314,63 Z" id="Software-Payment-Log" fill="#FFFFFF"></path>
                <path d="M73.5,54 L73.5,54 C73.7761424,54 74,54.2238576 74,54.5 L74,62.5 C74,62.7761424 73.7761424,63 73.5,63 L73.5,63 C73.2238576,63 73,62.7761424 73,62.5 L73,54.5 C73,54.2238576 73.2238576,54 73.5,54 Z" id="Rectangle" fill="#303035"></path>
                <g id="logo" transform="translate(30.000000, 23.000000) rotate(90.000000) translate(-30.000000, -23.000000) translate(7.000000, -6.000000)">
                    <path d="M16.9756098,0 L19.1666667,0 L19.1666667,33.9512195 L16.9756098,33.9512195 C7.60023937,33.9512195 -2.19444872e-14,26.3509801 -2.30926389e-14,16.9756098 C-2.42407906e-14,7.60023937 7.60023937,1.7222276e-15 16.9756098,0 Z M34.2761179,0 L35.2030488,0 C39.5782216,-8.03706214e-16 43.125,3.54677837 43.125,7.92195122 C43.125,12.2971241 39.5782216,15.8439024 35.2030488,15.8439024 L34.2761179,15.8439024 C29.900945,15.8439024 26.3541667,12.2971241 26.3541667,7.92195122 C26.3541667,3.54677837 29.900945,8.03706214e-16 34.2761179,0 Z" id="Rectangle-3" fill="#303035"></path>
                    <path d="M11.7238821,42.1560976 C16.099055,42.1560976 19.6458333,45.7028759 19.6458333,50.0780488 C19.6458333,54.4532216 16.099055,58 11.7238821,58 L10.7969512,58 C6.42177837,58 2.875,54.4532216 2.875,50.0780488 C2.875,45.7028759 6.42177837,42.1560976 10.7969512,42.1560976 L11.7238821,42.1560976 Z M29.0243902,24.0487805 C38.3997606,24.0487805 46,31.6490199 46,41.0243902 C46,50.3997606 38.3997606,58 29.0243902,58 L26.8333333,58 L26.8333333,24.0487805 L29.0243902,24.0487805 Z" id="Rectangle-Copy-18" fill="#FFFFFF"></path>
                </g>
            </g>
        </g>
    </g>
</svg>