<?xml version="1.0" encoding="UTF-8"?>
<svg width="124px" height="46px" viewBox="0 0 124 46" version="1.1" xmlns="http://www.w3.org/2000/svg" xmlns:xlink="http://www.w3.org/1999/xlink">
    <!-- Generator: Sketch 52.3 (67297) - http://www.bohemiancoding.com/sketch -->
    <title>Group@2x</title>
    <desc>Created with Sketch.</desc>
    <g id="pages" stroke="none" stroke-width="1" fill="none" fill-rule="evenodd">
        <g id="EXTL-about-us" transform="translate(-120.000000, -18.000000)">
            <g id="header">
                <g id="Group" transform="translate(120.000000, 18.000000)">
                    <path d="M65.744,28.476 C63.8173237,28.476 61.9473424,28.2380024 60.134,27.762 C59.5802692,27.6166457 58.9710574,27.4047129 58.3063646,27.1262017 L58.3063567,27.1262204 C56.8690081,26.5239606 56.1920348,24.8705314 56.7942945,23.4331828 C56.802319,23.4140315 56.8105547,23.3949695 56.819,23.376 L56.819,23.376 C57.4006081,22.0696188 58.9302565,21.4809677 60.2375901,22.0604319 C60.7582161,22.2912314 61.2223572,22.4690772 61.63,22.594 C63.0353404,23.0246688 64.4179932,23.24 65.778,23.24 C68.3620129,23.24 69.654,22.5940065 69.654,21.302 C69.654,20.6219966 69.2856703,20.1176683 68.549,19.789 C67.8123296,19.4603317 66.6280082,19.1146685 64.996,18.752 C63.2053244,18.3666647 61.7093393,17.9530022 60.508,17.511 C59.3066607,17.0689978 58.2753376,16.3606715 57.414,15.386 C56.5526624,14.4113285 56.122,13.0966749 56.122,11.442 C56.122,9.99132608 56.5186627,8.68233917 57.312,7.515 C58.1053373,6.34766083 59.2896588,5.4240034 60.865,4.744 C62.4403412,4.0639966 64.3726552,3.724 66.662,3.724 C68.2260078,3.724 69.7673257,3.89966491 71.286,4.251 C71.6919928,4.34492371 72.1502274,4.48410391 72.6607039,4.6685406 L72.660713,4.66851527 C74.0844572,5.1829184 74.8216238,6.75409724 74.3072206,8.17784143 C74.292742,8.2179148 74.2773309,8.25764512 74.261,8.297 L74.261,8.297 C73.696577,9.65716698 72.1725292,10.344816 70.7792451,9.86796474 C69.0106497,9.26265139 67.6269001,8.96 66.628,8.96 C65.29066,8.96 64.3160031,9.15833135 63.704,9.555 C63.0919969,9.95166865 62.786,10.4673302 62.786,11.102 C62.786,11.7366698 63.148663,12.2126651 63.874,12.53 C64.599337,12.8473349 65.7666586,13.1759983 67.376,13.516 C69.1893424,13.9013353 70.690994,14.3149978 71.881,14.757 C73.0710059,15.1990022 74.102329,15.9016619 74.975,16.865 C75.847671,17.8283382 76.284,19.1373251 76.284,20.792 C76.284,22.2200071 75.8873373,23.5119942 75.094,24.668 C74.3006627,25.8240058 73.1106746,26.7476632 71.524,27.439 C69.9373254,28.1303368 68.010678,28.476 65.744,28.476 Z M90.258,4.2 C92.4113441,4.2 94.2813254,4.55699643 95.868,5.271 C97.4546746,5.98500357 98.6786624,7.00499337 99.54,8.331 C100.401338,9.65700663 100.832,11.2153244 100.832,13.006 C100.832,14.7966756 100.401338,16.3493268 99.54,17.664 C98.6786624,18.9786732 97.4546746,19.9929964 95.868,20.707 C94.2813254,21.4210036 92.4113441,21.778 90.258,21.778 L86.11,21.778 L86.11,24.634 C86.11,26.4929905 84.6029905,28 82.744,28 L82.744,28 C80.8850095,28 79.378,26.4929905 79.378,24.634 L79.378,15.08 C79.378,9.07114192 84.2491419,4.2 90.258,4.2 Z M89.85,16.474 C91.2326736,16.474 92.2753298,16.1736697 92.978,15.573 C93.6806702,14.9723303 94.032,14.1166722 94.032,13.006 C94.032,11.8953278 93.6806702,11.0340031 92.978,10.422 C92.2753298,9.80999694 91.2326736,9.504 89.85,9.504 L89.85,9.504 C87.784455,9.504 86.11,11.178455 86.11,13.244 L86.11,16.474 L89.85,16.474 Z M107.462,4.2 L107.462,4.2 C109.32099,4.2 110.828,5.70700953 110.828,7.566 L110.828,20.662 C110.828,21.7665695 111.723431,22.662 112.828,22.662 L119.515,22.662 C120.989048,22.662 122.184,23.856952 122.184,25.331 L122.184,25.331 C122.184,26.805048 120.989048,28 119.515,28 L108.096,28 C105.886861,28 104.096,26.209139 104.096,24 L104.096,7.566 C104.096,5.70700953 105.60301,4.2 107.462,4.2 Z" id="SPL" fill="#1863F5"></path>
                    <path d="M2.528,45.112 C2.0746644,45.112 1.6346688,45.0560006 1.208,44.944 C0.7813312,44.8319994 0.434668,44.6826676 0.168,44.496 L0.688,43.328 C0.93866792,43.4933342 1.22933168,43.6266662 1.56,43.728 C1.89066832,43.8293338 2.2159984,43.88 2.536,43.88 C3.14400304,43.88 3.448,43.7280015 3.448,43.424 C3.448,43.2639992 3.3613342,43.1453337 3.188,43.068 C3.0146658,42.9906663 2.73600192,42.9093338 2.352,42.824 C1.93066456,42.7333329 1.57866808,42.6360005 1.296,42.532 C1.01333192,42.4279995 0.77066768,42.2613345 0.568,42.032 C0.36533232,41.8026655 0.264,41.4933353 0.264,41.104 C0.264,40.762665 0.3573324,40.454668 0.544,40.18 C0.7306676,39.905332 1.00933148,39.6880008 1.38,39.528 C1.75066852,39.3679992 2.20533064,39.288 2.744,39.288 C3.11200184,39.288 3.47466488,39.3293329 3.832,39.412 C4.18933512,39.4946671 4.50399864,39.6159992 4.776,39.776 L4.288,40.952 C3.754664,40.6639986 3.23733584,40.52 2.736,40.52 C2.42133176,40.52 2.19200072,40.5666662 2.048,40.66 C1.90399928,40.7533338 1.832,40.8746659 1.832,41.024 C1.832,41.1733341 1.91733248,41.285333 2.088,41.36 C2.25866752,41.434667 2.53333144,41.5119996 2.912,41.592 C3.3386688,41.6826671 3.6919986,41.7799995 3.972,41.884 C4.2520014,41.9880005 4.49466564,42.1533322 4.7,42.38 C4.90533436,42.6066678 5.008,42.9146647 5.008,43.304 C5.008,43.6400017 4.9146676,43.9439986 4.728,44.216 C4.5413324,44.4880014 4.2613352,44.7053325 3.888,44.868 C3.5146648,45.0306675 3.061336,45.112 2.528,45.112 Z M8.46,45.112 C7.86799704,45.112 7.33600236,44.9866679 6.864,44.736 C6.39199764,44.4853321 6.02133468,44.1386689 5.752,43.696 C5.48266532,43.2533311 5.348,42.7546694 5.348,42.2 C5.348,41.6453306 5.48266532,41.1466689 5.752,40.704 C6.02133468,40.2613311 6.39199764,39.9146679 6.864,39.664 C7.33600236,39.4133321 7.86799704,39.288 8.46,39.288 C9.05200296,39.288 9.58399764,39.4133321 10.056,39.664 C10.5280024,39.9146679 10.8986653,40.2613311 11.168,40.704 C11.4373347,41.1466689 11.572,41.6453306 11.572,42.2 C11.572,42.7546694 11.4373347,43.2533311 11.168,43.696 C10.8986653,44.1386689 10.5280024,44.4853321 10.056,44.736 C9.58399764,44.9866679 9.05200296,45.112 8.46,45.112 Z M8.46,43.8 C8.74266808,43.8 8.99866552,43.733334 9.228,43.6 C9.45733448,43.466666 9.638666,43.2786679 9.772,43.036 C9.905334,42.7933321 9.972,42.5146682 9.972,42.2 C9.972,41.8853318 9.905334,41.6066679 9.772,41.364 C9.638666,41.1213321 9.45733448,40.933334 9.228,40.8 C8.99866552,40.666666 8.74266808,40.6 8.46,40.6 C8.17733192,40.6 7.92133448,40.666666 7.692,40.8 C7.46266552,40.933334 7.281334,41.1213321 7.148,41.364 C7.014666,41.6066679 6.948,41.8853318 6.948,42.2 C6.948,42.5146682 7.014666,42.7933321 7.148,43.036 C7.281334,43.2786679 7.46266552,43.466666 7.692,43.6 C7.92133448,43.733334 8.17733192,43.8 8.46,43.8 Z M13.888,40.624 L13.888,41.856 L16.36,41.856 L16.36,43.08 L13.888,43.08 L13.888,45 L12.304,45 L12.304,39.4 L16.696,39.4 L16.696,40.624 L13.888,40.624 Z M18.572,40.656 L16.852,40.656 L16.852,39.4 L21.868,39.4 L21.868,40.656 L20.156,40.656 L20.156,45 L18.572,45 L18.572,40.656 Z M31.008,39.4 L29.192,45 L27.496,45 L26.424,41.592 L25.304,45 L23.608,45 L21.792,39.4 L23.424,39.4 L24.552,42.976 L25.736,39.4 L27.192,39.4 L28.32,43.008 L29.496,39.4 L31.008,39.4 Z M35.036,43.912 L32.668,43.912 L32.228,45 L30.612,45 L33.084,39.4 L34.644,39.4 L37.124,45 L35.476,45 L35.036,43.912 Z M34.572,42.744 L33.852,40.952 L33.132,42.744 L34.572,42.744 Z M39.92,43.512 L39.056,43.512 L39.056,45 L37.472,45 L37.472,39.4 L40.032,39.4 C40.5386692,39.4 40.9786648,39.4839992 41.352,39.652 C41.7253352,39.8200008 42.0133323,40.0599984 42.216,40.372 C42.4186677,40.6840016 42.52,41.0506646 42.52,41.472 C42.52,41.8773354 42.4253343,42.2306652 42.236,42.532 C42.0466657,42.8333348 41.7760018,43.0693325 41.424,43.24 L42.632,45 L40.936,45 L39.92,43.512 Z M40.92,41.472 C40.92,41.2106654 40.8373342,41.0080007 40.672,40.864 C40.5066658,40.7199993 40.261335,40.648 39.936,40.648 L39.056,40.648 L39.056,42.288 L39.936,42.288 C40.261335,42.288 40.5066658,42.217334 40.672,42.076 C40.8373342,41.934666 40.92,41.7333346 40.92,41.472 Z M47.788,43.776 L47.788,45 L43.292,45 L43.292,39.4 L47.684,39.4 L47.684,40.624 L44.86,40.624 L44.86,41.568 L47.348,41.568 L47.348,42.752 L44.86,42.752 L44.86,43.776 L47.788,43.776 Z M57.812,39.4 C58.3186692,39.4 58.7586648,39.4839992 59.132,39.652 C59.5053352,39.8200008 59.7933323,40.0599984 59.996,40.372 C60.1986677,40.6840016 60.3,41.0506646 60.3,41.472 C60.3,41.8933354 60.1986677,42.2586651 59.996,42.568 C59.7933323,42.8773349 59.5053352,43.1159992 59.132,43.284 C58.7586648,43.4520008 58.3186692,43.536 57.812,43.536 L56.836,43.536 L56.836,45 L55.252,45 L55.252,39.4 L57.812,39.4 Z M57.716,42.288 C58.0413349,42.288 58.2866658,42.217334 58.452,42.076 C58.6173341,41.934666 58.7,41.7333346 58.7,41.472 C58.7,41.2106654 58.6173341,41.0080007 58.452,40.864 C58.2866658,40.7199993 58.0413349,40.648 57.716,40.648 L56.836,40.648 L56.836,42.288 L57.716,42.288 Z M64.44,43.912 L62.072,43.912 L61.632,45 L60.016,45 L62.488,39.4 L64.048,39.4 L66.528,45 L64.88,45 L64.44,43.912 Z M63.976,42.744 L63.256,40.952 L62.536,42.744 L63.976,42.744 Z M69.524,42.992 L69.524,45 L67.94,45 L67.94,42.968 L65.804,39.4 L67.476,39.4 L68.804,41.624 L70.132,39.4 L71.668,39.4 L69.524,42.992 Z M77,45 L76.984,42.032 L75.544,44.448 L74.84,44.448 L73.408,42.112 L73.408,45 L71.944,45 L71.944,39.4 L73.248,39.4 L75.216,42.632 L77.136,39.4 L78.44,39.4 L78.456,45 L77,45 Z M83.972,43.776 L83.972,45 L79.476,45 L79.476,39.4 L83.868,39.4 L83.868,40.624 L81.044,40.624 L81.044,41.568 L83.532,41.568 L83.532,42.752 L81.044,42.752 L81.044,43.776 L83.972,43.776 Z M90.08,39.4 L90.08,45 L88.776,45 L86.304,42.016 L86.304,45 L84.752,45 L84.752,39.4 L86.056,39.4 L88.528,42.384 L88.528,39.4 L90.08,39.4 Z M92.292,40.656 L90.572,40.656 L90.572,39.4 L95.588,39.4 L95.588,40.656 L93.876,40.656 L93.876,45 L92.292,45 L92.292,40.656 Z M98.308,39.4 L99.892,39.4 L99.892,43.744 L102.564,43.744 L102.564,45 L98.308,45 L98.308,39.4 Z M105.824,45.112 C105.231997,45.112 104.700002,44.9866679 104.228,44.736 C103.755998,44.4853321 103.385335,44.1386689 103.116,43.696 C102.846665,43.2533311 102.712,42.7546694 102.712,42.2 C102.712,41.6453306 102.846665,41.1466689 103.116,40.704 C103.385335,40.2613311 103.755998,39.9146679 104.228,39.664 C104.700002,39.4133321 105.231997,39.288 105.824,39.288 C106.416003,39.288 106.947998,39.4133321 107.42,39.664 C107.892002,39.9146679 108.262665,40.2613311 108.532,40.704 C108.801335,41.1466689 108.936,41.6453306 108.936,42.2 C108.936,42.7546694 108.801335,43.2533311 108.532,43.696 C108.262665,44.1386689 107.892002,44.4853321 107.42,44.736 C106.947998,44.9866679 106.416003,45.112 105.824,45.112 Z M105.824,43.8 C106.106668,43.8 106.362665,43.733334 106.592,43.6 C106.821334,43.466666 107.002666,43.2786679 107.136,43.036 C107.269334,42.7933321 107.336,42.5146682 107.336,42.2 C107.336,41.8853318 107.269334,41.6066679 107.136,41.364 C107.002666,41.1213321 106.821334,40.933334 106.592,40.8 C106.362665,40.666666 106.106668,40.6 105.824,40.6 C105.541332,40.6 105.285334,40.666666 105.056,40.8 C104.826665,40.933334 104.645334,41.1213321 104.512,41.364 C104.378666,41.6066679 104.312,41.8853318 104.312,42.2 C104.312,42.5146682 104.378666,42.7933321 104.512,43.036 C104.645334,43.2786679 104.826665,43.466666 105.056,43.6 C105.285334,43.733334 105.541332,43.8 105.824,43.8 Z M113.42,42.08 L114.82,42.08 L114.82,44.4 C114.499998,44.6293345 114.132002,44.8053327 113.716,44.928 C113.299998,45.0506673 112.884002,45.112 112.468,45.112 C111.88133,45.112 111.353336,44.9880012 110.884,44.74 C110.414664,44.4919988 110.046668,44.1466689 109.78,43.704 C109.513332,43.2613311 109.38,42.7600028 109.38,42.2 C109.38,41.6399972 109.513332,41.1386689 109.78,40.696 C110.046668,40.2533311 110.417331,39.9080012 110.892,39.66 C111.366669,39.4119988 111.902664,39.288 112.5,39.288 C113.022669,39.288 113.491998,39.3759991 113.908,39.552 C114.324002,39.7280009 114.670665,39.9813317 114.948,40.312 L113.94,41.224 C113.561331,40.8079979 113.108003,40.6 112.58,40.6 C112.099998,40.6 111.713335,40.7453319 111.42,41.036 C111.126665,41.3266681 110.98,41.7146642 110.98,42.2 C110.98,42.5093349 111.046666,42.7853321 111.18,43.028 C111.313334,43.2706679 111.499999,43.4599993 111.74,43.596 C111.980001,43.7320007 112.254665,43.8 112.564,43.8 C112.868001,43.8 113.153332,43.7386673 113.42,43.616 L113.42,42.08 Z M115.728,39.4 L117.312,39.4 L117.312,45 L115.728,45 L115.728,39.4 Z M121.132,45.112 C120.54533,45.112 120.018669,44.9880012 119.552,44.74 C119.085331,44.4919988 118.718668,44.1466689 118.452,43.704 C118.185332,43.2613311 118.052,42.7600028 118.052,42.2 C118.052,41.6399972 118.185332,41.1386689 118.452,40.696 C118.718668,40.2533311 119.085331,39.9080012 119.552,39.66 C120.018669,39.4119988 120.54533,39.288 121.132,39.288 C121.644003,39.288 122.105331,39.3786658 122.516,39.56 C122.926669,39.7413342 123.267999,40.002665 123.54,40.344 L122.532,41.256 C122.169331,40.8186645 121.729336,40.6 121.212,40.6 C120.907998,40.6 120.637334,40.666666 120.4,40.8 C120.162665,40.933334 119.978667,41.1213321 119.848,41.364 C119.717333,41.6066679 119.652,41.8853318 119.652,42.2 C119.652,42.5146682 119.717333,42.7933321 119.848,43.036 C119.978667,43.2786679 120.162665,43.466666 120.4,43.6 C120.637334,43.733334 120.907998,43.8 121.212,43.8 C121.729336,43.8 122.169331,43.5813355 122.532,43.144 L123.54,44.056 C123.267999,44.397335 122.926669,44.6586658 122.516,44.84 C122.105331,45.0213342 121.644003,45.112 121.132,45.112 Z" id="Software-Payment-Log" fill="#303035"></path>
                    <path d="M51.5,39 L51.5,39 C51.7761424,39 52,39.2238576 52,39.5 L52,44.5 C52,44.7761424 51.7761424,45 51.5,45 L51.5,45 C51.2238576,45 51,44.7761424 51,44.5 L51,39.5 C51,39.2238576 51.2238576,39 51.5,39 Z" id="Rectangle" fill="#1863F5"></path>
                    <g id="logo" transform="translate(21.000000, 16.500000) rotate(90.000000) translate(-21.000000, -16.500000) translate(5.000000, -4.000000)">
                        <path d="M12,0 L13.3333333,0 L13.3333333,24 L12,24 C5.372583,24 -2.1392836e-14,18.627417 -2.22044605e-14,12 C-2.3016085e-14,5.372583 5.372583,1.21743675e-15 12,0 Z M23.9333333,0 L24.4,0 C27.4927946,-5.68137151e-16 30,2.5072054 30,5.6 C30,8.6927946 27.4927946,11.2 24.4,11.2 L23.9333333,11.2 C20.8405387,11.2 18.3333333,8.6927946 18.3333333,5.6 C18.3333333,2.5072054 20.8405387,5.68137151e-16 23.9333333,0 Z" id="Rectangle-3" fill="#303035"></path>
                        <path d="M8.06666667,29.8 C11.1594613,29.8 13.6666667,32.3072054 13.6666667,35.4 C13.6666667,38.4927946 11.1594613,41 8.06666667,41 L7.6,41 C4.5072054,41 2,38.4927946 2,35.4 C2,32.3072054 4.5072054,29.8 7.6,29.8 L8.06666667,29.8 Z M20,17 C26.627417,17 32,22.372583 32,29 C32,35.627417 26.627417,41 20,41 L18.6666667,41 L18.6666667,17 L20,17 Z" id="Rectangle-Copy-18" fill="#1863F5"></path>
                    </g>
                </g>
            </g>
        </g>
    </g>
</svg>