<?xml version="1.0" encoding="UTF-8"?>
<svg width="96px" height="62px" viewBox="0 0 96 62" version="1.1" xmlns="http://www.w3.org/2000/svg" xmlns:xlink="http://www.w3.org/1999/xlink">
    <!-- Generator: sketchtool 52.3 (67297) - http://www.bohemiancoding.com/sketch -->
    <title>47DA92BE-1ABB-4044-8ABF-B31CC3C5A73D@2x</title>
    <desc>Created with sketchtool.</desc>
    <g id="pages" stroke="none" stroke-width="1" fill="none" fill-rule="evenodd">
        <g id="EXTL-about-us" transform="translate(-1030.000000, -2358.000000)" fill-rule="nonzero">
            <g id="count-block" transform="translate(21.000000, 1863.000000)">
                <g id="count-copy-4" transform="translate(928.000000, 495.000000)">
                    <g id="ico3" transform="translate(81.000000, 0.000000)">
                        <path d="M31,62 C13.8791728,62 0,48.1208272 0,31 C0,13.8791728 13.8791728,0 31,0 C48.1208272,0 62,13.8791728 62,31 C62,48.1208272 48.1208272,62 31,62 Z M31,58.9508197 C46.4368114,58.9508197 58.9508197,46.4368114 58.9508197,31 C58.9508197,15.5631886 46.4368114,3.04918033 31,3.04918033 C15.5631886,3.04918033 3.04918033,15.5631886 3.04918033,31 C3.04918033,46.4368114 15.5631886,58.9508197 31,58.9508197 Z M33.125,41.7222222 C33.125,42.42787 32.3974,43 31.5,43 C30.6026003,43 29.875,42.42787 29.875,41.7222222 L29.875,40.2628852 C27.013794,39.6820205 25.0111085,37.6567925 25,35.3333333 C25,34.6276855 25.7276002,34.0555556 26.625,34.0555556 C27.5224,34.0555556 28.25,34.6276855 28.25,35.3333333 C28.25,36.7446288 29.7052003,37.8888889 31.5,37.8888889 C33.2947999,37.8888889 34.75,36.7446288 34.75,35.3333333 C34.75,33.9220378 33.2947999,32.7777778 31.5,32.7777778 C28.230957,32.7808973 25.4697266,30.8710938 25.0571289,28.3211534 C24.6445312,25.7705892 26.7091065,23.3778754 29.875,22.7371148 L29.875,21.2777778 C29.875,20.57213 30.6026003,20 31.5,20 C32.3974,20 33.125,20.57213 33.125,21.2777778 L33.125,22.7371148 C35.9862062,23.3179795 37.9888917,25.3432075 38,27.6666667 C38,28.3723145 37.2724,28.9444444 36.375,28.9444444 C35.4776003,28.9444444 34.75,28.3723145 34.75,27.6666667 C34.75,26.2553712 33.2947999,25.1111111 31.5,25.1111111 C29.7052003,25.1111111 28.25,26.2553712 28.25,27.6666667 C28.25,29.0779622 29.7052003,30.2222222 31.5,30.2222222 C34.769043,30.2191027 37.5302734,32.1289062 37.9428711,34.6794705 C38.3562624,37.2294108 36.2908937,39.6221246 33.125,40.2628852 L33.125,41.7222222 Z" id="Oval" fill="#1355F3"></path>
                        <path d="M53.0577007,59.1078867 C52.3232793,58.7577012 52.0082858,57.8710027 52.354143,57.1273902 C52.7000003,56.3837777 53.5757391,56.0648422 54.3101605,56.4150277 C57.8962833,58.1249567 61.8222655,59.023483 65.876982,59.023483 C80.889899,59.023483 93.0602729,46.7007999 93.0602729,31.5 C93.0602729,16.2992001 80.889899,3.97651702 65.876982,3.97651702 C61.7451384,3.97651702 57.7473095,4.9096041 54.1074462,6.68267283 C53.3759204,7.03901743 52.4975976,6.72745144 52.1456574,5.9867707 C51.7937173,5.24608996 52.1014323,4.3567752 52.8329581,4.00043059 C56.8683507,2.03468965 61.3014976,1 65.876982,1 C82.5134655,1 96,14.6553151 96,31.5 C96,48.3446849 82.5134655,62 65.876982,62 C61.386967,62 57.033565,61.0036516 53.0577007,59.1078867 Z" id="Path" fill="#333333"></path>
                    </g>
                </g>
            </g>
        </g>
    </g>
</svg>