<?xml version="1.0" encoding="UTF-8"?>
<svg width="87px" height="48px" viewBox="0 0 87 48" version="1.1" xmlns="http://www.w3.org/2000/svg" xmlns:xlink="http://www.w3.org/1999/xlink">
    <!-- Generator: sketchtool 52.3 (67297) - http://www.bohemiancoding.com/sketch -->
    <title>1B72E5EF-D578-4657-9366-02BD1CE5E07D@2x</title>
    <desc>Created with sketchtool.</desc>
    <g id="pages" stroke="none" stroke-width="1" fill="none" fill-rule="evenodd">
        <g id="EXTL-about-us" transform="translate(-1077.000000, -2822.000000)" fill-rule="nonzero">
            <g id="procces-block" transform="translate(-2.000000, 2618.000000)">
                <g id="Group-8" transform="translate(1079.000000, 204.000000)">
                    <g id="icon_cart">
                        <path d="M4,3 C3.44771525,3 3,3.44771525 3,4 L3,28 C3,28.5522847 3.44771525,29 4,29 L52,29 C52.5522847,29 53,28.5522847 53,28 L53,4 C53,3.44771525 52.5522847,3 52,3 L4,3 Z M4,0 L52,0 C54.209139,-4.05812251e-16 56,1.790861 56,4 L56,28 C56,30.209139 54.209139,32 52,32 L4,32 C1.790861,32 2.705415e-16,30.209139 0,28 L0,4 C-2.705415e-16,1.790861 1.790861,4.05812251e-16 4,0 Z M3,23 L53,23 L53,20 L3,20 L3,23 Z M76.4142136,6 L78.7071068,8.29289322 C79.0976311,8.68341751 79.0976311,9.31658249 78.7071068,9.70710678 C78.3165825,10.0976311 77.6834175,10.0976311 77.2928932,9.70710678 L73.2928932,5.70710678 C72.9023689,5.31658249 72.9023689,4.68341751 73.2928932,4.29289322 L77.2928932,0.292893219 C77.6834175,-0.0976310729 78.3165825,-0.0976310729 78.7071068,0.292893219 C79.0976311,0.683417511 79.0976311,1.31658249 78.7071068,1.70710678 L76.4142136,4 L86,4 C86.5522847,4 87,4.44771525 87,5 C87,5.55228475 86.5522847,6 86,6 L76.4142136,6 Z" id="Rectangle" fill="#FEFEFE"></path>
                        <path d="M32.5,35 L32.5,35 C33.3284271,35 34,35.6715729 34,36.5 L34,44 C34,44.5522847 34.4477153,45 35,45 L83,45 C83.5522847,45 84,44.5522847 84,44 L84,20 C84,19.4477153 83.5522847,19 83,19 L60.5,19 C59.6715729,19 59,18.3284271 59,17.5 L59,17.5 C59,16.6715729 59.6715729,16 60.5,16 L83,16 C85.209139,16 87,17.790861 87,20 L87,44 C87,46.209139 85.209139,48 83,48 L35,48 C32.790861,48 31,46.209139 31,44 L31,36.5 C31,35.6715729 31.6715729,35 32.5,35 Z M34,37 L84,37 L84,20 C84,19.4477153 83.5522847,19 83,19 L60.5,19 C59.6715729,19 59,18.3284271 59,17.5 C59,16.6715729 59.6715729,16 60.5,16 L83,16 C85.209139,16 87,17.790861 87,20 L87,44 C87,46.209139 85.209139,48 83,48 L35,48 C32.790861,48 31,46.209139 31,44 L31,36.5 C31,35.6715729 31.6715729,35 32.5,35 C33.3284271,35 34,35.6715729 34,36.5 L34,37 Z M34,40 L34,44 C34,44.5522847 34.4477153,45 35,45 L83,45 C83.5522847,45 84,44.5522847 84,44 L84,40 L34,40 Z" id="Path" fill="#333333"></path>
                    </g>
                </g>
            </g>
        </g>
    </g>
</svg>