<?xml version="1.0" encoding="UTF-8"?>
<svg width="53px" height="57px" viewBox="0 0 53 57" version="1.1" xmlns="http://www.w3.org/2000/svg" xmlns:xlink="http://www.w3.org/1999/xlink">
    <!-- Generator: sketchtool 52.3 (67297) - http://www.bohemiancoding.com/sketch -->
    <title>A3BC0A3C-0C0C-42FA-A441-EC61684A838D@2x</title>
    <desc>Created with sketchtool.</desc>
    <g id="pages" stroke="none" stroke-width="1" fill="none" fill-rule="evenodd">
        <g id="EXTL-about-us" transform="translate(-434.000000, -1491.000000)">
            <g id="icons-block" transform="translate(-2.000000, 1047.000000)">
                <g id="icon" transform="translate(436.000000, 444.000000)">
                    <path d="M13.5225774,7.5 L18.581086,12.5584921 C19.1396236,13.1170279 19.1396401,14.0225435 18.5811228,14.5810996 L18.5810094,14.581213 C18.0225104,15.1396256 17.1170389,15.1395913 16.5585822,14.5811364 L11.5,9.52257074 L6.44141776,14.5811364 C5.88296108,15.1395913 4.9774896,15.1396256 4.41899061,14.581213 L4.41887721,14.5810996 C3.86035989,14.0225435 3.86037637,13.1170279 4.41891403,12.5584921 L9.47742264,7.5 L4.41891403,2.44150794 C3.86037637,1.8829721 3.86035989,0.977456545 4.41887721,0.418900384 L4.41899061,0.418786995 C4.9774896,-0.139625571 5.88296108,-0.139591284 6.44141776,0.418863578 L11.5,5.47742926 L16.5585822,0.418863578 C17.1170389,-0.139591284 18.0225104,-0.139625571 18.5810094,0.418786995 L18.5811228,0.418900384 C19.1396401,0.977456545 19.1396236,1.8829721 18.581086,2.44150794 L13.5225774,7.5 Z M43.7502033,54 C46.9719392,54 49.5836721,51.3137085 49.5836721,48 C49.5836721,44.6862915 46.9719392,42 43.7502033,42 C40.5284674,42 37.9167344,44.6862915 37.9167344,48 C37.9167344,51.3137085 40.5284674,54 43.7502033,54 Z M43.7502033,57 C38.9175995,57 35,52.9705627 35,48 C35,43.0294373 38.9175995,39 43.7502033,39 C48.5828071,39 52.5004066,43.0294373 52.5004066,48 C52.5004066,52.9705627 48.5828071,57 43.7502033,57 Z" id="Path-2" fill="#333333"></path>
                    <path d="M40.8687145,11.8445188 L34.9265254,13.6051675 C34.132231,13.8405139 33.2975422,13.3873971 33.0621957,12.5931028 C32.8268492,11.7988084 33.279966,10.9641196 34.0742604,10.7287731 L43.0649728,8.06485834 C43.2832429,7.99852652 43.5176881,7.98142589 43.7508922,8.02120089 C43.9293673,8.05147677 44.1003118,8.11386927 44.255466,8.20418877 C44.2987423,8.22932789 44.3403953,8.25643311 44.3803546,8.28533747 C44.6106317,8.45134456 44.797334,8.68681135 44.9048866,8.97361846 L47.9048866,16.9736185 C48.1957668,17.7492989 47.8027585,18.6139172 47.027078,18.9047974 C46.2513975,19.1956776 45.3867793,18.8026693 45.0958991,18.0269888 L43.4000743,13.5047893 C38.2912198,24.1434132 30.560794,29.5718312 20.327763,29.5718312 C10.5546271,29.5718312 4.82633604,36.0914717 2.98665811,49.7013339 C2.87568684,50.5222949 2.12020651,51.0978552 1.29924556,50.986884 C0.478284612,50.8759127 -0.0972757396,50.1204323 0.0136955333,49.2994714 C2.03608658,34.337905 8.85951968,26.5718312 20.327763,26.5718312 C29.4340367,26.5718312 36.2402382,21.7375314 40.8687145,11.8445188 Z" id="arrow" fill="#FFFFFF" fill-rule="nonzero"></path>
                </g>
            </g>
        </g>
    </g>
</svg>