<?xml version="1.0" encoding="UTF-8"?>
<svg width="118px" height="61px" viewBox="0 0 118 61" version="1.1" xmlns="http://www.w3.org/2000/svg" xmlns:xlink="http://www.w3.org/1999/xlink">
    <!-- Generator: sketchtool 52.3 (67297) - http://www.bohemiancoding.com/sketch -->
    <title>7ACAEF15-AF56-406F-AB37-2D886650B519@2x</title>
    <desc>Created with sketchtool.</desc>
    <g id="pages" stroke="none" stroke-width="1" fill="none" fill-rule="evenodd">
        <g id="EXTL" transform="translate(-631.000000, -569.000000)" fill-rule="nonzero">
            <g id="icon2" transform="translate(631.000000, 569.000000)">
                <path d="M57.5,53.851141 C56.6715729,53.851141 56,53.1816952 56,52.3558918 C56,51.5300885 56.6715729,50.8606427 57.5,50.8606427 L106.5,50.8606427 C106.897825,50.8606427 107.279356,51.0181774 107.56066,51.298591 L114.146447,57.8635189 C114.240215,57.9569901 114.367392,58.0095016 114.5,58.0095016 C114.776142,58.0095016 115,57.786353 115,57.5110852 L115,12.4825803 C115,11.1062415 113.880712,9.99049836 112.5,9.99049836 L71.5,9.99049836 C70.6715729,9.99049836 70,9.3210525 70,8.49524918 C70,7.66944586 70.6715729,7 71.5,7 L112.5,7 C115.537566,7 118,9.45463482 118,12.4825803 L118,57.5110852 C118,59.4379597 116.432997,61 114.5,61 C113.571742,61 112.681504,60.632419 112.025126,59.9781205 L105.87868,53.851141 L57.5,53.851141 Z M99.5,27 L75.5,27 C74.6715729,27 74,26.3284271 74,25.5 C74,24.6715729 74.6715729,24 75.5,24 L99.5,24 C100.328427,24 101,24.6715729 101,25.5 C101,26.3284271 100.328427,27 99.5,27 Z M99.5,37 L81.5,37 C80.6715729,37 80,36.3284271 80,35.5 C80,34.6715729 80.6715729,34 81.5,34 L99.5,34 C100.328427,34 101,34.6715729 101,35.5 C101,36.3284271 100.328427,37 99.5,37 Z" id="Path" fill="#333333"></path>
                <path d="M5.5,3 C4.11928813,3 3,4.11530155 3,5.49109574 L3,41.3628744 C3,42.7386686 4.11928813,43.8539701 5.5,43.8539701 L54.5,43.8539701 C54.8978247,43.8539701 55.2793556,44.0114425 55.5606602,44.2917452 L62.1464466,50.854075 C62.2402148,50.9475092 62.3673918,51 62.5,51 C62.7761424,51 63,50.7769397 63,50.5017809 L63,5.49109574 C63,4.11530155 61.8807119,3 60.5,3 L5.5,3 Z M53.8786797,46.851141 L5.5,46.851141 C2.46243388,46.851141 4.4408921e-16,44.3965062 0,41.3685607 L0,5.48258033 C-4.4408921e-16,2.45463482 2.46243388,6.64024028e-16 5.5,0 L60.5,0 C63.5375661,-5.97621625e-15 66,2.45463482 66,5.48258033 L66,50.5110852 C66,52.4379597 64.4329966,54 62.5,54 C61.5717423,54 60.6815036,53.632419 60.0251263,52.9781205 L53.8786797,46.851141 Z M14.5,21 L52.5,21 C53.3284271,21 54,20.3284271 54,19.5 C54,18.6715729 53.3284271,18 52.5,18 L14.5,18 C13.6715729,18 13,18.6715729 13,19.5 C13,20.3284271 13.6715729,21 14.5,21 Z M34.5,31 L52.5,31 C53.3284271,31 54,30.3284271 54,29.5 C54,28.6715729 53.3284271,28 52.5,28 L34.5,28 C33.6715729,28 33,28.6715729 33,29.5 C33,30.3284271 33.6715729,31 34.5,31 Z" id="Rectangle" fill="#1355F3" transform="translate(33.000000, 27.000000) scale(-1, 1) translate(-33.000000, -27.000000) "></path>
            </g>
        </g>
    </g>
</svg>