<?xml version="1.0" encoding="UTF-8"?>
<svg width="82px" height="99px" viewBox="0 0 82 99" version="1.1" xmlns="http://www.w3.org/2000/svg" xmlns:xlink="http://www.w3.org/1999/xlink">
    <!-- Generator: sketchtool 52.3 (67297) - http://www.bohemiancoding.com/sketch -->
    <title>89D396ED-08B0-4900-80AF-78FD323506DD@2x</title>
    <desc>Created with sketchtool.</desc>
    <g id="pages" stroke="none" stroke-width="1" fill="none" fill-rule="evenodd">
        <g id="EXTL" transform="translate(-634.000000, -2067.000000)" fill-rule="nonzero">
            <g id="icon-block" transform="translate(0.000000, 1831.000000)">
                <g id="icon7" transform="translate(634.000000, 236.000000)">
                    <g id="money" transform="translate(0.000000, 43.000000)" fill="#FFFFFF">
                        <path d="M81.5712812,29.7238631 L76.7493507,25.3331736 L81.5712812,20.9424841 C82.1429063,20.4218147 82.1429063,19.5778103 81.5712812,19.0571409 L62.5354182,1.72371731 C61.9636102,1.2032146 61.0367101,1.2032146 60.4649021,1.72371731 L41.7321486,18.7811395 L21.5350979,0.390377033 C20.9632899,-0.130125678 20.0363898,-0.130125678 19.4645818,0.390377033 L0.428718751,17.7238006 C-0.14290625,18.24447 -0.14290625,19.0884744 0.428718751,19.6091438 L11.1078379,29.3331944 L4.68539214,29.3331944 L4.68539214,31.999875 L13.1783541,31.999875 C13.3767663,32.000375 13.5731652,31.9635415 13.7552872,31.8918744 L23.7286151,27.9998542 L45.3928915,27.9998542 L45.3928915,33.3332153 L29.2856228,33.3332153 C28.4769647,33.3332153 27.8213256,33.9300517 27.8213256,34.6665556 C27.8213256,35.1867249 28.153538,35.6593941 28.6720823,35.8772285 L47.7079453,43.8772702 C48.1869535,44.0756046 48.7459489,44.024771 49.1722424,43.7439362 L74.5324048,27.0798494 L78.3878992,30.5905343 L47.8228907,51.2505231 C44.9520844,53.1910044 41.3347513,53.6653435 38.0606969,52.530635 L13.6850009,44.0826046 C13.52283,44.0281043 13.3513242,44.0001042 13.1783541,43.9999375 L4.68539214,43.9999375 L4.68539214,46.6666181 L12.9162449,46.6666181 L37.8923717,55.2455955 C41.113804,56.352116 44.6661155,55.9038485 47.5116726,54.0317324 L81.4878163,31.67854 C82.1019059,31.1993708 82.1732904,30.3576998 81.6470586,29.7985302 C81.6228977,29.7728634 81.5976386,29.7478633 81.5712812,29.7238631 Z M39.1037352,25.3331736 C33.6037115,25.3331736 28.2357997,25.3331736 23,25.3331736 L19.1102218,26.9011818 L14.5372218,28.6851911 L3.53449302,18.6664722 L20.4998398,3.21839176 L44.7866724,25.3331736 L39.1037352,25.3331736 Z M48.1589488,41.1292559 L35.9525677,35.9998958 L46.8571886,35.9998958 C47.6658467,35.9998958 48.3214858,35.4028927 48.3214858,34.6665556 L48.3214858,28.551857 L56.2726193,35.7918947 L48.1589488,41.1292559 Z M73.7285057,24.3131683 C64.5761686,30.326533 59.5589984,33.6247724 58.6769952,34.2078865 C54,30 48,24.3131683 46.0823924,22.7438268 L43.8024817,20.6664826 L61.4999771,4.55173204 L78.4653239,19.9998125 L73.7285057,24.3131683 Z" id="Shape" transform="translate(41.000000, 27.921127) scale(-1, 1) translate(-41.000000, -27.921127) "></path>
                    </g>
                    <path d="M40.5000142,3.25508235 C39.891621,3.25508235 39.2916931,3.16826091 38.7061349,3 C35.1383039,3.87861105 30.2488795,4.60574759 24.0000128,5.19807139 L24.0000007,22.3468039 C24.01694,27.8562441 26.9927799,33.9745151 31.8859908,36.8895674 L40.498272,43 L49.1141033,36.8752422 C54.0034209,33.9626771 56.9787042,27.8498645 57.0000142,22.355611 L57.0000142,5.19807274 C50.7511564,4.60574869 45.8617272,3.87861172 42.2938935,3 C41.7083354,3.16826091 41.1084074,3.25508235 40.5000142,3.25508235 Z M30.3243385,39.3169512 C24.5437781,35.7973703 21.0200986,29.602879 21.0000142,22.9265534 L21,5.39084779 C21,3.84820622 22.172904,2.557714 23.7103557,2.40876829 C30.3902167,1.76163471 35.4451132,0.958711949 38.8750452,0 C39.4167016,0.272636485 39.9583579,0.408954727 40.5000142,0.408954727 C41.0416705,0.408954727 41.5833269,0.272636485 42.1249832,0 C45.5549176,0.958712623 50.6098188,1.76163584 57.2896868,2.40876966 C58.8271218,2.55772936 60.0000142,3.84820876 60.0000142,5.39083506 L60.0000142,22.9265534 C59.9747228,29.5977688 56.451787,35.7856895 50.6756899,39.3023501 L42.2654598,45.4250178 C41.2132214,46.1910498 39.7863192,46.1917188 38.7333612,45.4266737 L30.3243385,39.3169512 Z M46.5,23 C47.3284271,23 48,22.3284271 48,21.5 C48,20.6715729 47.3284271,20 46.5,20 L42,20 L42,15.5 C42,14.6715729 41.3284271,14 40.5,14 C39.6715729,14 39,14.6715729 39,15.5 L39,20 L34.5,20 C33.6715729,20 33,20.6715729 33,21.5 C33,22.3284271 33.6715729,23 34.5,23 L39,23 L39,27.5 C39,28.3284271 39.6715729,29 40.5,29 C41.3284271,29 42,28.3284271 42,27.5 L42,23 L46.5,23 Z" id="Shape-Copy" fill="#333333"></path>
                </g>
            </g>
        </g>
    </g>
</svg>