<?xml version="1.0" encoding="UTF-8"?>
<svg width="74px" height="47px" viewBox="0 0 74 47" version="1.1" xmlns="http://www.w3.org/2000/svg" xmlns:xlink="http://www.w3.org/1999/xlink">
    <!-- Generator: sketchtool 52.3 (67297) - http://www.bohemiancoding.com/sketch -->
    <title>4BB4A50F-E1FA-42D5-9634-C4CE83FF8B9E@2x</title>
    <desc>Created with sketchtool.</desc>
    <g id="pages" stroke="none" stroke-width="1" fill="none" fill-rule="evenodd">
        <g id="EXTL-about-us" transform="translate(-223.000000, -2821.000000)" fill-rule="nonzero">
            <g id="procces-block" transform="translate(-2.000000, 2618.000000)">
                <g id="Group-10" transform="translate(224.000000, 203.000000)">
                    <g id="icon-users" transform="translate(1.000000, 0.000000)">
                        <path d="M3,45.5 C3,46.3284271 2.32842712,47 1.5,47 C0.671572875,47 0,46.3284271 0,45.5 C0,34.7304474 8.73044738,26 19.5,26 C30.2695526,26 39,34.7304474 39,45.5 C39,46.3284271 38.3284271,47 37.5,47 C36.6715729,47 36,46.3284271 36,45.5 C36,36.3873016 28.6126984,29 19.5,29 C10.3873016,29 3,36.3873016 3,45.5 Z M20,19 C23.8659932,19 27,15.8659932 27,12 C27,8.13400675 23.8659932,5 20,5 C16.1340068,5 13,8.13400675 13,12 C13,15.8659932 16.1340068,19 20,19 Z M20,22 C14.4771525,22 10,17.5228475 10,12 C10,6.4771525 14.4771525,2 20,2 C25.5228475,2 30,6.4771525 30,12 C30,17.5228475 25.5228475,22 20,22 Z" id="Path" fill="#FFFFFF"></path>
                        <path d="M42.5869326,8.640034 C42.0501175,9.2634904 41.1175976,9.3266692 40.5040912,8.78114779 C39.8905848,8.23562638 39.8284143,7.28798262 40.3652295,6.66452621 C43.9857567,2.45965097 49.2042549,0 54.8112091,0 C65.4088857,0 74,8.73044738 74,19.5 C74,20.3284271 73.3391451,21 72.5239392,21 C71.7087333,21 71.0478783,20.3284271 71.0478783,19.5 C71.0478783,10.3873016 63.7784739,3 54.8112091,3 C50.0646271,3 45.6526548,5.07950865 42.5869326,8.640034 Z M60.5,23 L56,23 L56,27.5 C56,28.3284271 55.3284271,29 54.5,29 C53.6715729,29 53,28.3284271 53,27.5 L53,23 L48.5,23 C47.6715729,23 47,22.3284271 47,21.5 C47,20.6715729 47.6715729,20 48.5,20 L53,20 L53,15.5 C53,14.6715729 53.6715729,14 54.5,14 C55.3284271,14 56,14.6715729 56,15.5 L56,20 L60.5,20 C61.3284271,20 62,20.6715729 62,21.5 C62,22.3284271 61.3284271,23 60.5,23 Z" id="Path" fill="#333333"></path>
                    </g>
                </g>
            </g>
        </g>
    </g>
</svg>