<?xml version="1.0" encoding="UTF-8"?>
<svg width="117px" height="68px" viewBox="0 0 117 68" version="1.1" xmlns="http://www.w3.org/2000/svg" xmlns:xlink="http://www.w3.org/1999/xlink">
    <!-- Generator: sketchtool 52.3 (67297) - http://www.bohemiancoding.com/sketch -->
    <title>90A0F0B0-771F-448D-B321-C64E88E88E0B@2x</title>
    <desc>Created with sketchtool.</desc>
    <g id="pages" stroke="none" stroke-width="1" fill="none" fill-rule="evenodd">
        <g id="EXTL" transform="translate(-1039.000000, -830.000000)" fill-rule="nonzero">
            <g id="icon5" transform="translate(1039.000000, 830.000000)">
                <path d="M58.5,68 C51.0441559,68 45,61.9558441 45,54.5 C45,47.0441559 51.0441559,41 58.5,41 C65.9558441,41 72,47.0441559 72,54.5 C72,61.9558441 65.9558441,68 58.5,68 Z M58.5,65 C64.2989899,65 69,60.2989899 69,54.5 C69,48.7010101 64.2989899,44 58.5,44 C52.7010101,44 48,48.7010101 48,54.5 C48,60.2989899 52.7010101,65 58.5,65 Z" id="Oval-Copy-7" fill="#333333"></path>
                <path d="M58.4121574,26.9999708 C57.5772458,26.9999708 56.9004163,26.3283979 56.9004163,25.4999708 C56.9004163,24.6715437 57.5772458,23.9999708 58.4121574,23.9999708 C60.2312291,23.9999708 61.9803881,23.5452665 63.5344987,22.6903919 C64.2647071,22.2887238 65.1848231,22.5504609 65.5896353,23.2749981 C65.9944475,23.9995353 65.7306616,24.9125052 65.0004532,25.3141733 C63.0005771,26.4142517 60.7474293,26.9999708 58.4121574,26.9999708 Z M69.9390077,20.6749483 C69.494725,21.3763459 68.5615171,21.5875759 67.8546294,21.1467438 C67.1477417,20.7059117 66.9348583,19.7799516 67.379141,19.078554 C68.3269736,17.5821925 68.8809429,15.8718071 68.97868,14.0769289 C69.0237249,13.2497084 69.7360848,12.6153461 70.5697804,12.6600412 C71.4034759,12.7047363 72.0428035,13.4115636 71.9977586,14.2387841 C71.8721044,16.5463418 71.1584267,18.7498281 69.9390077,20.6749483 Z M70.7085129,7.71507544 C71.0666677,8.46340788 70.7456178,9.35813802 69.9914278,9.71351114 C69.2372379,10.0688843 68.3355044,9.75032779 67.9773496,9.00199534 C67.2094455,7.39752829 66.0387393,6.00820636 64.5849487,4.97030739 C63.9072332,4.48646868 63.7531352,3.5491099 64.2407611,2.87665797 C64.728387,2.20420604 65.6730829,2.05130483 66.3507983,2.53514354 C68.217914,3.86812598 69.7211558,5.65208066 70.7085129,7.71507544 Z M60.0932167,0.102155632 C60.9218467,0.203585649 61.510715,0.952331088 61.4084911,1.77452538 C61.3062671,2.59671967 60.551661,3.18101456 59.7230311,3.07958455 C59.2980924,3.02756912 58.8681003,3.00087992 58.4375862,2.99999682 C57.0499235,2.99997444 55.7226552,3.25480291 54.4820696,3.7475128 C53.7069453,4.05536048 52.8270697,3.68143818 52.5168123,2.91233396 C52.206555,2.14322974 52.5834041,1.27018772 53.3585284,0.962340032 C54.9557136,0.328003368 56.6642772,-3.1784561e-05 58.440725,-5.68434189e-14 C58.9960666,0.00113511467 59.5475982,0.0353681577 60.0932167,0.102155632 Z M47.8803191,4.9526691 C48.4092492,4.31169074 49.3617146,4.2175275 50.0077101,4.74234961 C50.6537057,5.26717172 50.748606,6.21223973 50.2196759,6.85321809 C49.0869845,8.22585824 48.3199563,9.85955746 47.9995753,11.6159897 C47.8508822,12.4311731 47.0643334,12.9724065 46.2427692,12.8248683 C45.4212051,12.6773301 44.8757352,11.89689 45.0244283,11.0817066 C45.4369446,8.82015885 46.4243571,6.71706121 47.8803191,4.9526691 Z M45.4879938,17.72942 C45.2266034,16.9426394 45.6575087,16.0945746 46.4504478,15.8352143 C47.2433869,15.5758541 48.0980898,16.0034128 48.3594801,16.7901934 C48.9204616,18.4787382 49.9090726,19.9973011 51.2229726,21.2049358 C51.8354785,21.7679037 51.8720648,22.7169571 51.3046904,23.324706 C50.7373159,23.9324549 49.7808339,23.968757 49.1683279,23.4057891 C47.4807937,21.8547388 46.2100546,19.902811 45.4879938,17.72942 Z M55.0774417,26.5911485 C54.2678507,26.3886752 53.7769693,25.5733323 53.9810274,24.770029 C54.1850856,23.9667258 55.0068105,23.4796569 55.8164015,23.6821302 C56.6459456,23.8895936 57.5032845,23.9970169 58.3759205,23.9999107 C59.2108273,24.0026794 59.8853911,24.676493 59.8826007,25.5049155 C59.8798104,26.333338 59.2007226,27.0026627 58.3658157,26.999894 C57.246906,26.9961835 56.1448283,26.8580947 55.0774417,26.5911485 Z M13.4121574,46.9999708 C12.5772458,46.9999708 11.9004163,46.3283979 11.9004163,45.4999708 C11.9004163,44.6715437 12.5772458,43.9999708 13.4121574,43.9999708 C15.2312291,43.9999708 16.9803881,43.5452665 18.5344987,42.6903919 C19.2647071,42.2887238 20.1848231,42.5504609 20.5896353,43.2749981 C20.9944475,43.9995353 20.7306616,44.9125052 20.0004532,45.3141733 C18.0005771,46.4142517 15.7474293,46.9999708 13.4121574,46.9999708 Z M24.9390077,40.6749483 C24.494725,41.3763459 23.5615171,41.5875759 22.8546294,41.1467438 C22.1477417,40.7059117 21.9348583,39.7799516 22.379141,39.078554 C23.3269736,37.5821925 23.8809429,35.8718071 23.97868,34.0769289 C24.0237249,33.2497084 24.7360848,32.6153461 25.5697804,32.6600412 C26.4034759,32.7047363 27.0428035,33.4115636 26.9977586,34.2387841 C26.8721044,36.5463418 26.1584267,38.7498281 24.9390077,40.6749483 Z M25.7085129,27.7150754 C26.0666677,28.4634079 25.7456178,29.358138 24.9914278,29.7135111 C24.2372379,30.0688843 23.3355044,29.7503278 22.9773496,29.0019953 C22.2094455,27.3975283 21.0387393,26.0082064 19.5849487,24.9703074 C18.9072332,24.4864687 18.7531352,23.5491099 19.2407611,22.876658 C19.728387,22.204206 20.6730829,22.0513048 21.3507983,22.5351435 C23.217914,23.868126 24.7211558,25.6520807 25.7085129,27.7150754 Z M15.0932167,20.1021556 C15.9218467,20.2035856 16.510715,20.9523311 16.4084911,21.7745254 C16.3062671,22.5967197 15.551661,23.1810146 14.7230311,23.0795845 C14.2980924,23.0275691 13.8681003,23.0008799 13.4375862,22.9999968 C12.0499235,22.9999744 10.7226552,23.2548029 9.48206961,23.7475128 C8.70694531,24.0553605 7.82706966,23.6814382 7.51681233,22.912334 C7.206555,22.1432297 7.58340414,21.2701877 8.35852843,20.96234 C9.95571362,20.3280034 11.6642772,19.9999682 13.440725,20 C13.9960666,20.0011351 14.5475982,20.0353682 15.0932167,20.1021556 Z M2.88031908,24.9526691 C3.40924918,24.3116907 4.3617146,24.2175275 5.00771014,24.7423496 C5.65370568,25.2671717 5.74860597,26.2122397 5.21967588,26.8532181 C4.08698445,28.2258582 3.31995626,29.8595575 2.99957528,31.6159897 C2.85088224,32.4311731 2.06433337,32.9724065 1.24276921,32.8248683 C0.421205053,32.6773301 -0.12426476,31.89689 0.0244282835,31.0817066 C0.436944553,28.8201588 1.42435715,26.7170612 2.88031908,24.9526691 Z M0.487993767,37.72942 C0.226603392,36.9426394 0.657508743,36.0945746 1.45044781,35.8352143 C2.24338687,35.5758541 3.09808975,36.0034128 3.35948013,36.7901934 C3.9204616,38.4787382 4.90907261,39.9973011 6.22297257,41.2049358 C6.8354785,41.7679037 6.87206481,42.7169571 6.30469036,43.324706 C5.73731591,43.9324549 4.78083388,43.968757 4.16832794,43.4057891 C2.48079373,41.8547388 1.21005464,39.902811 0.487993767,37.72942 Z M10.0774417,46.5911485 C9.2678507,46.3886752 8.77696932,45.5733323 8.98102743,44.770029 C9.18508555,43.9667258 10.0068105,43.4796569 10.8164015,43.6821302 C11.6459456,43.8895936 12.5032845,43.9970169 13.3759205,43.9999107 C14.2108273,44.0026794 14.8853911,44.676493 14.8826007,45.5049155 C14.8798104,46.333338 14.2007226,47.0026627 13.3658157,46.999894 C12.246906,46.9961835 11.1448283,46.8580947 10.0774417,46.5911485 Z M103.412157,46.9999708 C102.577246,46.9999708 101.900416,46.3283979 101.900416,45.4999708 C101.900416,44.6715437 102.577246,43.9999708 103.412157,43.9999708 C105.231229,43.9999708 106.980388,43.5452665 108.534499,42.6903919 C109.264707,42.2887238 110.184823,42.5504609 110.589635,43.2749981 C110.994447,43.9995353 110.730662,44.9125052 110.000453,45.3141733 C108.000577,46.4142517 105.747429,46.9999708 103.412157,46.9999708 Z M114.939008,40.6749483 C114.494725,41.3763459 113.561517,41.5875759 112.854629,41.1467438 C112.147742,40.7059117 111.934858,39.7799516 112.379141,39.078554 C113.326974,37.5821925 113.880943,35.8718071 113.97868,34.0769289 C114.023725,33.2497084 114.736085,32.6153461 115.56978,32.6600412 C116.403476,32.7047363 117.042804,33.4115636 116.997759,34.2387841 C116.872104,36.5463418 116.158427,38.7498281 114.939008,40.6749483 Z M115.708513,27.7150754 C116.066668,28.4634079 115.745618,29.358138 114.991428,29.7135111 C114.237238,30.0688843 113.335504,29.7503278 112.97735,29.0019953 C112.209446,27.3975283 111.038739,26.0082064 109.584949,24.9703074 C108.907233,24.4864687 108.753135,23.5491099 109.240761,22.876658 C109.728387,22.204206 110.673083,22.0513048 111.350798,22.5351435 C113.217914,23.868126 114.721156,25.6520807 115.708513,27.7150754 Z M105.093217,20.1021556 C105.921847,20.2035856 106.510715,20.9523311 106.408491,21.7745254 C106.306267,22.5967197 105.551661,23.1810146 104.723031,23.0795845 C104.298092,23.0275691 103.8681,23.0008799 103.437586,22.9999968 C102.049923,22.9999744 100.722655,23.2548029 99.4820696,23.7475128 C98.7069453,24.0553605 97.8270697,23.6814382 97.5168123,22.912334 C97.206555,22.1432297 97.5834041,21.2701877 98.3585284,20.96234 C99.9557136,20.3280034 101.664277,19.9999682 103.440725,20 C103.996067,20.0011351 104.547598,20.0353682 105.093217,20.1021556 Z M92.8803191,24.9526691 C93.4092492,24.3116907 94.3617146,24.2175275 95.0077101,24.7423496 C95.6537057,25.2671717 95.748606,26.2122397 95.2196759,26.8532181 C94.0869845,28.2258582 93.3199563,29.8595575 92.9995753,31.6159897 C92.8508822,32.4311731 92.0643334,32.9724065 91.2427692,32.8248683 C90.4212051,32.6773301 89.8757352,31.89689 90.0244283,31.0817066 C90.4369446,28.8201588 91.4243571,26.7170612 92.8803191,24.9526691 Z M90.4879938,37.72942 C90.2266034,36.9426394 90.6575087,36.0945746 91.4504478,35.8352143 C92.2433869,35.5758541 93.0980898,36.0034128 93.3594801,36.7901934 C93.9204616,38.4787382 94.9090726,39.9973011 96.2229726,41.2049358 C96.8354785,41.7679037 96.8720648,42.7169571 96.3046904,43.324706 C95.7373159,43.9324549 94.7808339,43.968757 94.1683279,43.4057891 C92.4807937,41.8547388 91.2100546,39.902811 90.4879938,37.72942 Z M100.077442,46.5911485 C99.2678507,46.3886752 98.7769693,45.5733323 98.9810274,44.770029 C99.1850856,43.9667258 100.006811,43.4796569 100.816402,43.6821302 C101.645946,43.8895936 102.503284,43.9970169 103.37592,43.9999107 C104.210827,44.0026794 104.885391,44.676493 104.882601,45.5049155 C104.87981,46.333338 104.200723,47.0026627 103.365816,46.999894 C102.246906,46.9961835 101.144828,46.8580947 100.077442,46.5911485 Z" id="Oval-Copy-8" fill="#1355F3"></path>
            </g>
        </g>
    </g>
</svg>