<?xml version="1.0" encoding="UTF-8"?>
<svg width="85px" height="50px" viewBox="0 0 85 50" version="1.1" xmlns="http://www.w3.org/2000/svg" xmlns:xlink="http://www.w3.org/1999/xlink">
    <!-- Generator: sketchtool 52.3 (67297) - http://www.bohemiancoding.com/sketch -->
    <title>614B1CF1-0584-4A06-9607-E3652D9FF5BC@2x</title>
    <desc>Created with sketchtool.</desc>
    <g id="pages" stroke="none" stroke-width="1" fill="none" fill-rule="evenodd">
        <g id="EXTL-about-us" transform="translate(-632.000000, -2820.000000)" fill-rule="nonzero">
            <g id="procces-block" transform="translate(-2.000000, 2618.000000)">
                <g id="Group-9" transform="translate(634.000000, 202.000000)">
                    <g id="icon_graph">
                        <path d="M24,21 C25.6568542,21 27,19.6568542 27,18 C27,16.3431458 25.6568542,15 24,15 C22.3431458,15 21,16.3431458 21,18 C21,19.6568542 22.3431458,21 24,21 Z M24,24 C20.6862915,24 18,21.3137085 18,18 C18,14.6862915 20.6862915,12 24,12 C27.3137085,12 30,14.6862915 30,18 C30,21.3137085 27.3137085,24 24,24 Z M51,47 C52.6568542,47 54,45.6568542 54,44 C54,42.3431458 52.6568542,41 51,41 C49.3431458,41 48,42.3431458 48,44 C48,45.6568542 49.3431458,47 51,47 Z M51,50 C47.6862915,50 45,47.3137085 45,44 C45,40.6862915 47.6862915,38 51,38 C54.3137085,38 57,40.6862915 57,44 C57,47.3137085 54.3137085,50 51,50 Z M79,9 C80.6568542,9 82,7.65685425 82,6 C82,4.34314575 80.6568542,3 79,3 C77.3431458,3 76,4.34314575 76,6 C76,7.65685425 77.3431458,9 79,9 Z M79,12 C75.6862915,12 73,9.3137085 73,6 C73,2.6862915 75.6862915,0 79,0 C82.3137085,0 85,2.6862915 85,6 C85,9.3137085 82.3137085,12 79,12 Z" id="Oval" fill="#333333"></path>
                        <path d="M43.4877775,34.4684882 C44.1112324,34.9938052 44.1744087,35.9063484 43.6288856,36.5067106 C43.0833625,37.1070728 42.1357186,37.167909 41.5122636,36.6425921 L29.5122636,26.5315118 C28.8888087,26.0061948 28.8256324,25.0936516 29.3711555,24.4932894 C29.9166786,23.8929272 30.8643225,23.832091 31.4877775,24.3574079 L43.4877775,34.4684882 Z M2.69322728,48.4091445 C2.19116465,49.0681017 1.24997209,49.1952899 0.591014882,48.6932273 C-0.0679423312,48.1911646 -0.195130514,47.2499721 0.306932124,46.5910149 L16.3069321,25.5910149 C16.8089948,24.9320577 17.7501873,24.8048695 18.4091445,25.3069321 C19.0681017,25.8089948 19.1952899,26.7501873 18.6932273,27.4091445 L2.69322728,48.4091445 Z M57.6932273,36.4091445 C57.1911646,37.0681017 56.2499721,37.1952899 55.5910149,36.6932273 C54.9320577,36.1911646 54.8048695,35.2499721 55.3069321,34.5910149 L71.3069321,13.5910149 C71.8089948,12.9320577 72.7501873,12.8048695 73.4091445,13.3069321 C74.0681017,13.8089948 74.1952899,14.7501873 73.6932273,15.4091445 L57.6932273,36.4091445 Z" id="Path-15-Copy" fill="#FEFEFE"></path>
                    </g>
                </g>
            </g>
        </g>
    </g>
</svg>