<?xml version="1.0" encoding="UTF-8"?>
<svg width="113px" height="54px" viewBox="0 0 113 54" version="1.1" xmlns="http://www.w3.org/2000/svg" xmlns:xlink="http://www.w3.org/1999/xlink">
    <!-- Generator: sketchtool 52.3 (67297) - http://www.bohemiancoding.com/sketch -->
    <title>FD7AFD54-8F88-45B9-8FD5-38AA436524D7@2x</title>
    <desc>Created with sketchtool.</desc>
    <g id="pages" stroke="none" stroke-width="1" fill="none" fill-rule="evenodd">
        <g id="EXTL" transform="translate(-1041.000000, -568.000000)" fill-rule="nonzero">
            <g id="icon3" transform="translate(1041.000000, 568.000000)">
                <path d="M110,2.5 C110,1.67157288 110.671573,1 111.5,1 C112.328427,1 113,1.67157288 113,2.5 L113,48.5 C113,51.5144504 110.686716,54 107.777228,54 L64.5,54 C63.6715729,54 63,53.3284271 63,52.5 C63,51.6715729 63.6715729,51 64.5,51 L107.777228,51 C108.9798,51 110,49.9038276 110,48.5 L110,2.5 Z M65.5,28 C64.6715729,28 64,27.3284271 64,26.5 C64,25.6715729 64.6715729,25 65.5,25 L83.5,25 C84.3284271,25 85,25.6715729 85,26.5 C85,27.3284271 84.3284271,28 83.5,28 L65.5,28 Z M65.5,39 C64.6715729,39 64,38.3284271 64,37.5 C64,36.6715729 64.6715729,36 65.5,36 L103.5,36 C104.328427,36 105,36.6715729 105,37.5 C105,38.3284271 104.328427,39 103.5,39 L65.5,39 Z" id="Path" fill="#333333"></path>
                <path d="M1.5,3 C0.671572875,3 0,2.32842712 0,1.5 C0,0.671572875 0.671572875,0 1.5,0 L45.6980198,0 C48.643734,0 51,2.47898817 51,5.5 L51,51.5 C51,52.3284271 50.3284271,53 49.5,53 C48.6715729,53 48,52.3284271 48,51.5 L48,5.5 C48,4.10273383 46.951857,3 45.6980198,3 L1.5,3 Z M23.5,17 C22.6715729,17 22,16.3284271 22,15.5 C22,14.6715729 22.6715729,14 23.5,14 L41.5,14 C42.3284271,14 43,14.6715729 43,15.5 C43,16.3284271 42.3284271,17 41.5,17 L23.5,17 Z M3.5,28 C2.67157288,28 2,27.3284271 2,26.5 C2,25.6715729 2.67157288,25 3.5,25 L41.5,25 C42.3284271,25 43,25.6715729 43,26.5 C43,27.3284271 42.3284271,28 41.5,28 L3.5,28 Z" id="Path" fill="#1355F3" transform="translate(25.500000, 26.500000) scale(-1, 1) translate(-25.500000, -26.500000) "></path>
            </g>
        </g>
    </g>
</svg>