<?xml version="1.0" encoding="UTF-8"?>
<svg width="18px" height="20px" viewBox="0 0 18 20" version="1.1" xmlns="http://www.w3.org/2000/svg" xmlns:xlink="http://www.w3.org/1999/xlink">
    <!-- Generator: Sketch 52.3 (67297) - http://www.bohemiancoding.com/sketch -->
    <title>icon</title>
    <desc>Created with Sketch.</desc>
    <g id="user" stroke="none" stroke-width="1" fill="none" fill-rule="evenodd">
        <g id="EXTL-dashboard-/-open-deal" transform="translate(-1053.000000, -27.000000)" fill="#FFFFFF">
            <g id="header">
                <g id="btn" transform="translate(1038.000000, 19.000000)">
                    <g id="icon" transform="translate(16.000000, 9.000000)">
                        <path d="M10,10.2222222 C10,11.0413984 9.43907257,11.4923743 8.31720087,11.5751634 L8.31720087,12.6387709 C8.31720087,12.8382722 8.15547308,13 7.95597174,13 L7.95597174,13 C7.7564704,13 7.59474261,12.8382722 7.59474261,12.6387709 L7.59474261,11.5751634 C6.52573398,11.501089 5.99417447,11.1198292 6.00004815,10.4313725 L6.00004815,10.4313725 C6.00493094,10.0220586 6.33813018,9.69281046 6.74747325,9.69281046 L6.83850703,9.69281046 C7.24159543,9.69281046 7.56836313,10.0195782 7.56836313,10.4226666 C7.56836313,10.4255686 7.56834582,10.4284707 7.56831121,10.4313725 C7.56831121,10.6579532 7.72102444,10.7712418 8.02645547,10.7712418 C8.28489712,10.7712418 8.414116,10.6470601 8.414116,10.3986928 C8.414116,10.0762511 8.20560371,9.77777915 7.78857287,9.50326797 C7.40678408,9.25925804 7.02206421,9.01743039 6.63440174,8.77777778 C6.2173709,8.44226412 6.00885861,8.03703941 6.00885861,7.5620915 C6.00885861,6.86492026 6.53748132,6.45969556 7.59474261,6.34640523 L7.59474261,5.36122913 C7.59474261,5.16172779 7.7564704,5 7.95597174,5 L7.95597174,5 C8.15547308,5 8.31720087,5.16172779 8.31720087,5.36122913 L8.31720087,6.33986928 C9.22762031,6.40958641 9.7650534,6.65794993 9.92951627,7.08496732 C9.97650566,7.19825765 10,7.33115392 10,7.48366013 L10,7.48366013 C10,7.81214322 9.73371184,8.07843137 9.40522876,8.07843137 L8.98274346,8.07843137 C8.66869919,8.07843137 8.414116,7.82384819 8.414116,7.50980392 C8.414116,7.27015131 8.27021316,7.1503268 7.98240314,7.1503268 C7.70634047,7.1503268 7.56831121,7.26797268 7.56831121,7.50326797 C7.56831121,7.66884614 7.63585744,7.81699281 7.77095194,7.94771242 C7.90604644,8.07843203 8.15861062,8.24400771 8.52865207,8.44444444 C9.00441965,8.70588366 9.353898,8.95642582 9.5770976,9.19607843 C9.85903394,9.50109085 10,9.84313536 10,10.2222222 Z" id="$"></path>
                        <path d="M3.28395546,3.36915714 C5.86034744,1.10017755 9.71602673,1.06548367 12.3280535,3.13670816 L10.2576748,3.21303469 C9.99041425,3.22344286 9.78373274,3.4385449 9.79442316,3.69874898 C9.80511359,3.95201429 10.018922,4.14976939 10.2754922,4.14976939 C10.2826192,4.14976939 10.2861826,4.14976939 10.2933096,4.14976939 L13.4719287,4.03527959 C13.7320624,4.02487143 13.9351804,3.82017755 13.9351804,3.56691224 L13.9351804,3.53221837 C13.9351804,3.52527959 13.9351804,3.5218102 13.9351804,3.51487143 L13.9351804,3.51140204 L13.8175857,0.451402041 C13.8068953,0.191197959 13.5823964,-0.0100265306 13.3186993,0.000381632653 C13.0514388,0.0107897959 12.8447572,0.225891837 12.8554477,0.486095918 L12.9302806,2.40466735 C11.6367394,1.37425918 10.0438664,0.77752449 8.34052561,0.694259184 C6.23094878,0.590177551 4.20333185,1.29446327 2.63896659,2.67527959 C0.486628062,4.57303469 -0.425621381,7.45956531 0.258565702,10.2073204 C0.312017817,10.4224224 0.508008909,10.5646673 0.725380846,10.5646673 C0.764579065,10.5646673 0.800213808,10.561198 0.839412027,10.5507898 C1.09598218,10.4883408 1.25633853,10.2350755 1.19219599,9.98527959 C0.593532294,7.57058571 1.39175056,5.03446327 3.28395546,3.36915714 Z" id="Path" stroke="#FFFFFF"></path>
                        <path d="M15.7668062,7.78303469 C15.7026637,7.53323878 15.4425301,7.37711633 15.1859599,7.43956531 C14.9293898,7.50201429 14.7690334,7.75527959 14.8331759,8.00507551 C15.4354031,10.4197694 14.6336214,12.9558918 12.7414165,14.621198 C11.4122405,15.7903816 9.74453452,16.3663 8.08395546,16.3663 C6.49820935,16.3663 4.91602673,15.8424224 3.6403029,14.8085449 L5.73562584,14.6246673 C5.99932294,14.6003816 6.19531403,14.3748714 6.17036971,14.1146673 C6.14542539,13.8544633 5.91379955,13.6671163 5.64653898,13.691402 L2.47861024,13.9689531 C2.21491314,13.9932388 2.01892205,14.218749 2.04386637,14.4789531 L2.32894432,17.5632388 C2.35032517,17.8060959 2.56057016,17.9899735 2.80644989,17.9899735 C2.82070379,17.9899735 2.83495768,17.9899735 2.84921158,17.9865041 C3.11290869,17.9622184 3.30889978,17.7367082 3.28395546,17.4765041 L3.11290869,15.5995653 C4.40644989,16.6195653 5.99219599,17.2128306 7.68484633,17.2960959 C7.82025835,17.3030347 7.95567038,17.3065041 8.08751893,17.3065041 C10.0509933,17.3065041 11.9182539,16.6056878 13.3864053,15.3150755 C15.5387439,13.4173204 16.4509933,10.5342592 15.7668062,7.78303469 Z" id="Path" stroke="#FFFFFF" opacity="0.600000024"></path>
                    </g>
                </g>
            </g>
        </g>
    </g>
</svg>