<?xml version="1.0" encoding="UTF-8"?>
<svg width="110px" height="58px" viewBox="0 0 110 58" version="1.1" xmlns="http://www.w3.org/2000/svg" xmlns:xlink="http://www.w3.org/1999/xlink">
    <!-- Generator: sketchtool 52.3 (67297) - http://www.bohemiancoding.com/sketch -->
    <title>51ED3DB7-FDEB-483B-B830-6B35861469D0@2x</title>
    <desc>Created with sketchtool.</desc>
    <g id="pages" stroke="none" stroke-width="1" fill="none" fill-rule="evenodd">
        <g id="EXTL" transform="translate(-221.000000, -831.000000)" fill-rule="nonzero">
            <g id="icon4" transform="translate(221.000000, 831.000000)">
                <path d="M5.5,21 C4.11928813,21 3,22.1192881 3,23.5 L3,52.5 C3,53.8807119 4.11928813,55 5.5,55 L60.5,55 C61.8807119,55 63,53.8807119 63,52.5 L63,23.5 C63,22.1192881 61.8807119,21 60.5,21 L5.5,21 Z M5.5,18 L60.5,18 C63.5375661,18 66,20.4624339 66,23.5 L66,52.5 C66,55.5375661 63.5375661,58 60.5,58 L5.5,58 C2.46243388,58 4.4408921e-16,55.5375661 0,52.5 L0,23.5 C-4.4408921e-16,20.4624339 2.46243388,18 5.5,18 Z M21,14.5 C21,15.3284271 20.3284271,16 19.5,16 C18.6715729,16 18,15.3284271 18,14.5 C18,6.49187113 24.4918711,1.55431223e-15 32.5,0 L33.5,3.55271368e-15 C41.5081289,1.99840144e-15 48,6.49187113 48,14.5 C48,15.3284271 47.3284271,16 46.5,16 C45.6715729,16 45,15.3284271 45,14.5 C45,8.14872538 39.8512746,3 33.5,3 L32.5,3 C26.1487254,3 21,8.14872538 21,14.5 Z" id="Rectangle" fill="#1355F3" transform="translate(33.000000, 29.000000) scale(-1, 1) translate(-33.000000, -29.000000) "></path>
                <path d="M70.3687905,47.8344997 C69.6733747,47.380015 69.4795437,46.4500955 69.935857,45.7574663 C70.3921702,45.0648372 71.325831,44.8717829 72.0212468,45.3262676 C75.6698504,47.7107898 79.9355949,49 84.3974062,49 C96.873808,49 106.98793,38.9264069 106.98793,26.5 C106.98793,14.0735931 96.873808,4 84.3974062,4 C76.8506861,4 69.9359275,7.71149587 65.7484988,13.7975353 C65.2783169,14.480901 64.340953,14.655248 63.6548379,14.1869503 C62.9687228,13.7186525 62.7936744,12.7850448 63.2638562,12.1016791 C68.0070756,5.2078495 75.8465734,1 84.3974062,1 C98.5373283,1 110,12.4167389 110,26.5 C110,40.5832611 98.5373283,52 84.3974062,52 C79.343904,52 74.5046401,50.5374585 70.3687905,47.8344997 Z M86.25,35.8888889 C86.25,36.5024957 85.6903077,37 85,37 C84.3096925,37 83.75,36.5024957 83.75,35.8888889 L83.75,34.6199001 C81.5490723,34.1148004 80.008545,32.3537326 80,30.3333333 C80,29.7197265 80.5596925,29.2222222 81.25,29.2222222 C81.9403077,29.2222222 82.5,29.7197265 82.5,30.3333333 C82.5,31.5605468 83.6193848,32.5555556 85,32.5555556 C86.3806153,32.5555556 87.5,31.5605468 87.5,30.3333333 C87.5,29.1061199 86.3806153,28.1111111 85,28.1111111 C82.4853516,28.1138238 80.3613281,26.453125 80.0439453,24.2357856 C79.7265625,22.0179036 81.3146973,19.9372829 83.75,19.3800999 L83.75,18.1111111 C83.75,17.4975043 84.3096925,17 85,17 C85.6903077,17 86.25,17.4975043 86.25,18.1111111 L86.25,19.3800999 C88.4509278,19.8851996 89.9914552,21.6462674 90,23.6666667 C90,24.2802735 89.4403077,24.7777778 88.75,24.7777778 C88.0596925,24.7777778 87.5,24.2802735 87.5,23.6666667 C87.5,22.4394532 86.3806153,21.4444444 85,21.4444444 C83.6193848,21.4444444 82.5,22.4394532 82.5,23.6666667 C82.5,24.8938801 83.6193848,25.8888889 85,25.8888889 C87.5146484,25.8861762 89.6386719,27.546875 89.9560547,29.7647569 C90.274048,31.9820964 88.6853028,34.0627171 86.25,34.6199001 L86.25,35.8888889 Z" id="Path" fill="#333333"></path>
            </g>
        </g>
    </g>
</svg>