<?xml version="1.0" encoding="UTF-8"?>
<svg width="83px" height="83px" viewBox="0 0 83 83" version="1.1" xmlns="http://www.w3.org/2000/svg" xmlns:xlink="http://www.w3.org/1999/xlink">
    <!-- Generator: sketchtool 52.3 (67297) - http://www.bohemiancoding.com/sketch -->
    <title>CDD205BF-5E28-4DD0-A9A3-8E9A613641F9@2x</title>
    <desc>Created with sketchtool.</desc>
    <g id="pages" stroke="none" stroke-width="1" fill="none" fill-rule="evenodd">
        <g id="EXTL" transform="translate(-224.000000, -2073.000000)" fill-rule="nonzero">
            <g id="icon-block" transform="translate(0.000000, 1831.000000)">
                <g id="icon6" transform="translate(224.000000, 242.000000)">
                    <path d="M21,53 C21,58.3333333 21,66.3333333 21,77 C21,78.6568542 22.3431458,80 24,80 L77,80 C78.6568542,80 80,78.6568542 80,77 L80,15.570761 C80,15.3183496 79.9045471,15.0752753 79.7327935,14.8903099 L68.9885154,3.3195489 C68.7993032,3.11578189 68.5337908,3 68.255722,3 L24,3 C22.3431458,3 21,4.34314575 21,6 C21,8.11745869 21,9.69016685 21,10.7181245 M18,10 L18,6 C18,2.6862915 20.6862915,-2.79460044e-16 24,0 L68.255722,4.4408921e-15 C69.3679972,2.26077277e-15 70.430047,0.463127565 71.1868959,1.2781956 L81.931174,12.8489566 C82.6181885,13.5888183 83,14.5611153 83,15.570761 L83,77 C83,80.3137085 80.3137085,83 77,83 L24,83 C20.6862915,83 18,80.3137085 18,77 C18,66.3333333 18,58.3333333 18,53 L21,53 L21,10 L18,10 Z M44.5,20 L63.5,20 C64.3284271,20 65,19.3284271 65,18.5 C65,17.6715729 64.3284271,17 63.5,17 L44.5,17 C43.6715729,17 43,17.6715729 43,18.5 C43,19.3284271 43.6715729,20 44.5,20 Z M44.5,42 L67.5,42 C68.3284271,42 69,41.3284271 69,40.5 C69,39.6715729 68.3284271,39 67.5,39 L44.5,39 C43.6715729,39 43,39.6715729 43,40.5 C43,41.3284271 43.6715729,42 44.5,42 Z M44.5,31 L57.5,31 C58.3284271,31 59,30.3284271 59,29.5 C59,28.6715729 58.3284271,28 57.5,28 L44.5,28 C43.6715729,28 43,28.6715729 43,29.5 C43,30.3284271 43.6715729,31 44.5,31 Z M60.5,75 L73.5,75 C74.3284271,75 75,74.3284271 75,73.5 C75,72.6715729 74.3284271,72 73.5,72 L60.5,72 C59.6715729,72 59,72.6715729 59,73.5 C59,74.3284271 59.6715729,75 60.5,75 Z" id="Rectangle" fill="#FFFFFF"></path>
                    <path d="M19.5000142,12.2550824 C18.891621,12.2550824 18.2916931,12.1682609 17.7061349,12 C14.1383039,12.8786111 9.24887947,13.6057476 3.00001283,14.1980714 L3.00000066,31.3468039 C3.01694,36.8562441 5.99277992,42.9745151 10.8859908,45.8895674 L19.498272,52 L28.1141033,45.8752422 C33.0034209,42.9626771 35.9787042,36.8498645 36.0000142,31.355611 L36.0000142,14.1980727 C29.7511564,13.6057487 24.8617272,12.8786117 21.2938935,12 C20.7083354,12.1682609 20.1084074,12.2550824 19.5000142,12.2550824 Z M9.32433854,48.3169512 C3.54377814,44.7973703 0.0200985558,38.602879 1.42037443e-05,31.9265534 L1.13686838e-13,14.3908478 C1.13686838e-13,12.8482062 1.17290399,11.557714 2.7103557,11.4087683 C9.39021667,10.7616347 14.4451132,9.95871195 17.8750452,9 C18.4167016,9.27263648 18.9583579,9.40895473 19.5000142,9.40895473 C20.0416705,9.40895473 20.5833269,9.27263648 21.1249832,9 C24.5549176,9.95871262 29.6098188,10.7616358 36.2896868,11.4087697 C37.8271218,11.5577294 39.0000142,12.8482088 39.0000142,14.3908351 L39.0000142,31.9265534 C38.9747228,38.5977688 35.451787,44.7856895 29.6756899,48.3023501 L21.2654598,54.4250178 C20.2132214,55.1910498 18.7863192,55.1917188 17.7333612,54.4266737 L9.32433854,48.3169512 Z M17.2788781,33.6853129 C17.2363431,33.7226557 17.1956652,33.75774 17.1569503,33.7905236 C16.9910799,33.6440897 16.7946117,33.4497215 16.572208,33.2091211 C15.8405979,32.417652 14.8874539,31.1925489 13.7261828,29.5449631 C13.2489177,28.8678298 12.3130928,28.7058047 11.6359596,29.1830698 C10.9588263,29.660335 10.7968012,30.5961598 11.2740663,31.2732931 C14.084023,35.2599977 15.6924629,37.0000372 17.2060069,37.0000372 C18.7107423,37.0000372 21.6119971,33.8998392 28.6519515,25.4609195 C29.1826321,24.8247831 29.0971433,23.878891 28.4610069,23.3482103 C27.8248705,22.8175297 26.8789783,22.9030184 26.3482977,23.5391549 C23.3061725,27.185805 20.935608,29.9165784 19.2431413,31.7251 C18.4159236,32.6090412 17.7575975,33.2650287 17.2788781,33.6853129 Z" id="Shape-Copy" fill="#333333"></path>
                </g>
            </g>
        </g>
    </g>
</svg>