<?xml version="1.0" encoding="UTF-8"?>
<svg width="110px" height="61px" viewBox="0 0 110 61" version="1.1" xmlns="http://www.w3.org/2000/svg" xmlns:xlink="http://www.w3.org/1999/xlink">
    <!-- Generator: sketchtool 52.3 (67297) - http://www.bohemiancoding.com/sketch -->
    <title>C6E982F4-1687-425F-A868-B1A86630F0A4@2x</title>
    <desc>Created with sketchtool.</desc>
    <g id="pages" stroke="none" stroke-width="1" fill="none" fill-rule="evenodd">
        <g id="EXTL-about-us" transform="translate(-1024.000000, -1863.000000)" fill-rule="nonzero">
            <g id="count-block" transform="translate(21.000000, 1863.000000)">
                <g id="count" transform="translate(926.000000, 0.000000)">
                    <g id="icon_user" transform="translate(77.000000, 0.000000)">
                        <path d="M29.5,28 C36.4035594,28 42,22.4035594 42,15.5 C42,8.59644063 36.4035594,3 29.5,3 C22.5964406,3 17,8.59644063 17,15.5 C17,22.4035594 22.5964406,28 29.5,28 Z M29.5,31 C20.9395864,31 14,24.0604136 14,15.5 C14,6.93958638 20.9395864,0 29.5,0 C38.0604136,0 45,6.93958638 45,15.5 C45,24.0604136 38.0604136,31 29.5,31 Z M3,59.5517241 C3,60.3515848 2.32842712,61 1.5,61 C0.671572875,61 0,60.3515848 0,59.5517241 C0,44.1539772 12.8170943,33 29.5,33 C46.1829057,33 59,44.1539772 59,59.5517241 C59,60.3515848 58.3284271,61 57.5,61 C56.6715729,61 56,60.3515848 56,59.5517241 C56,45.8246708 44.5915457,35.8965517 29.5,35.8965517 C14.4084543,35.8965517 3,45.8246708 3,59.5517241 Z" id="user" fill="#1355F3"></path>
                        <path d="M80.5,28 C87.4035594,28 93,22.4035594 93,15.5 C93,8.59644063 87.4035594,3 80.5,3 C73.5964406,3 68,8.59644063 68,15.5 C68,22.4035594 73.5964406,28 80.5,28 Z M80.5,31 C71.9395864,31 65,24.0604136 65,15.5 C65,6.93958638 71.9395864,0 80.5,0 C89.0604136,0 96,6.93958638 96,15.5 C96,24.0604136 89.0604136,31 80.5,31 Z M60.6251753,44.7632749 C60.0855768,45.368505 59.1418874,45.4352085 58.517386,44.9122614 C57.8928845,44.3893143 57.8240571,43.474746 58.3636555,42.869516 C63.911541,36.6468388 71.9573817,33 80.6103103,33 C97.2308331,33 110,44.1539772 110,59.5517241 C110,60.3515848 109.330938,61 108.505609,61 C107.68028,61 107.011218,60.3515848 107.011218,59.5517241 C107.011218,45.8246708 95.6454238,35.8965517 80.6103103,35.8965517 C72.8350324,35.8965517 65.6111833,39.1708165 60.6251753,44.7632749 Z" id="user" fill="#333333"></path>
                    </g>
                </g>
            </g>
        </g>
    </g>
</svg>