<?xml version="1.0" encoding="UTF-8"?>
<svg width="27px" height="20px" viewBox="0 0 27 20" version="1.1" xmlns="http://www.w3.org/2000/svg" xmlns:xlink="http://www.w3.org/1999/xlink">
    <!-- Generator: sketchtool 52.3 (67297) - http://www.bohemiancoding.com/sketch -->
    <title>69CF0F55-39C3-429F-8DAB-0460640C3474@2x</title>
    <desc>Created with sketchtool.</desc>
    <g id="pages" stroke="none" stroke-width="1" fill="none" fill-rule="evenodd">
        <g id="EXTL" transform="translate(-116.000000, -29.000000)">
            <g id="main" transform="translate(-2.000000, 0.000000)">
                <g id="header" transform="translate(2.000000, 0.000000)">
                    <g id="logo" transform="translate(129.500000, 39.000000) rotate(90.000000) translate(-129.500000, -39.000000) translate(120.000000, 26.000000)">
                        <path d="M7.5,0 L8,0 L8,15 L7.5,15 C3.35786438,15 -2.16971952e-14,11.6421356 -2.22044605e-14,7.5 C-2.27117258e-14,3.35786438 3.35786438,7.6089797e-16 7.5,0 Z M14.5,-1.0658141e-13 C16.4329966,-1.06936496e-13 18,1.56700338 18,3.5 C18,5.43299662 16.4329966,7 14.5,7 C12.5670034,7 11,5.43299662 11,3.5 C11,1.56700338 12.5670034,-1.06226325e-13 14.5,-1.0658141e-13 Z" id="Rectangle-3" fill="#1863F5"></path>
                        <path d="M4.5,19 C6.43299662,19 8,20.5670034 8,22.5 C8,24.4329966 6.43299662,26 4.5,26 C2.56700338,26 1,24.4329966 1,22.5 C1,20.5670034 2.56700338,19 4.5,19 Z M11.5,11 C15.6421356,11 19,14.3578644 19,18.5 C19,22.6421356 15.6421356,26 11.5,26 L11,26 L11,11 L11.5,11 Z" id="Rectangle-Copy-18" fill="#303035"></path>
                    </g>
                </g>
            </g>
        </g>
    </g>
</svg>