<?xml version="1.0" encoding="UTF-8"?>
<svg width="24px" height="16px" viewBox="0 0 24 16" version="1.1" xmlns="http://www.w3.org/2000/svg" xmlns:xlink="http://www.w3.org/1999/xlink">
    <!-- Generator: sketchtool 52.3 (67297) - http://www.bohemiancoding.com/sketch -->
    <title>76BC0ECB-68F1-4E22-919A-6459771B1885@2x</title>
    <desc>Created with sketchtool.</desc>
    <g id="pages" stroke="none" stroke-width="1" fill="none" fill-rule="evenodd">
        <g id="EXTL-contact" transform="translate(-120.000000, -346.000000)" fill="#1355F3" fill-rule="nonzero">
            <g id="cont" transform="translate(120.000000, 343.000000)">
                <g id="icon" transform="translate(0.000000, 3.000000)">
                    <path d="M1.5999999,1.5999999 L1.5999999,14.4000001 L22.4000001,14.4000001 L22.4000001,1.5999999 L1.5999999,1.5999999 Z M1.5999999,0 L22.4000001,-2.22044605e-16 C23.2836556,-3.84369496e-16 24,0.716344358 24,1.5999999 L24,14.4000001 C24,15.2836556 23.2836556,16 22.4000001,16 L1.5999999,16 C0.716344358,16 5.52305804e-16,15.2836556 4.4408921e-16,14.4000001 L-2.22044605e-16,1.5999999 C-3.30261199e-16,0.716344358 0.716344358,6.064141e-16 1.5999999,0 Z M12,7.58802895 L6.12575349,5.07052533 C5.74155737,4.90587185 5.27437862,5.03934987 5.08228056,5.36865683 C4.89018249,5.6979638 5.04590874,6.09839785 5.43010487,6.26305133 L11.6521757,8.9296207 C11.8711362,9.02345977 12.1288638,9.02345977 12.3478243,8.9296207 L18.5698951,6.26305133 C18.9540913,6.09839785 19.1098175,5.6979638 18.9177194,5.36865683 C18.7256214,5.03934987 18.2584426,4.90587185 17.8742465,5.07052533 L12,7.58802895 Z"></path>
                </g>
            </g>
        </g>
    </g>
</svg>