<?xml version="1.0" encoding="UTF-8"?>
<svg width="22px" height="22px" viewBox="0 0 22 22" version="1.1" xmlns="http://www.w3.org/2000/svg" xmlns:xlink="http://www.w3.org/1999/xlink">
    <!-- Generator: sketchtool 52.3 (67297) - http://www.bohemiancoding.com/sketch -->
    <title>2CDB86A5-C636-41E2-BE27-1724999E2093@2x</title>
    <desc>Created with sketchtool.</desc>
    <g id="pages" stroke="none" stroke-width="1" fill="none" fill-rule="evenodd">
        <g id="EXTL-contact" transform="translate(-120.000000, -430.000000)" fill="#1355F3" fill-rule="nonzero">
            <g id="cont" transform="translate(120.000000, 343.000000)">
                <g id="phone-call" transform="translate(0.000000, 87.000000)">
                    <path d="M16.7385222,19.8638476 C16.701029,19.9151913 16.6502663,19.9927935 16.5557189,20.1381956 L16.5440426,20.1614442 C16.6595436,19.9838703 16.7151119,19.8984384 16.7507731,19.849678 C16.7495765,19.8509295 16.7483793,19.8521789 16.7471813,19.8534262 C16.7442916,19.8568964 16.7414054,19.8603701 16.7385222,19.8638476 Z M16.7913199,19.8001463 C16.7818052,19.8098202 16.7699757,19.8237404 16.7542698,19.8449283 C16.9148092,19.6528109 17.0860029,19.4709484 17.2985255,19.2607878 C17.3899259,19.1704031 17.476583,19.086653 17.6538981,18.9162157 C17.8629136,18.7178096 18.0319014,18.5515083 18.1903063,18.3864839 C18.3622832,18.2083555 18.429091,18.0556769 18.429091,17.9274194 C18.429091,17.8067884 18.3679056,17.670838 18.1966082,17.5019413 L15.725925,15.0333033 L15.7056858,15.0127056 C15.5542377,14.8557146 15.4291387,14.7985076 15.3151526,14.7985076 C15.1943783,14.7985076 15.0550149,14.8609417 14.8825908,15.032595 L12.6357751,17.2623236 L11.6117411,16.7133769 C11.5455708,16.6779054 11.2539565,16.5285199 11.3073823,16.555956 C11.1770643,16.4910872 11.1191926,16.4619182 11.043738,16.4223822 C10.9314668,16.3635553 10.8322484,16.3079566 10.72233,16.2399366 C9.24092595,15.3032361 7.90532523,14.0916949 6.6282401,12.5293151 C5.99303813,11.7299963 5.54587006,11.0270204 5.21254479,10.2926194 L4.74003732,9.25156436 L5.58536789,8.48184028 C5.73712997,8.34365183 5.89386673,8.1937662 6.07386321,8.01573513 C6.14869791,7.94171755 6.22663628,7.86377571 6.32061481,7.7691279 C6.4451453,7.64349885 6.4451453,7.64349885 6.57876884,7.50858658 C6.64753458,7.4398031 6.64753458,7.4398031 6.72055887,7.36593115 C6.73913744,7.34711387 6.73913744,7.34711387 6.75797434,7.32802602 C6.85408348,7.23062902 6.89990577,7.18439989 6.95679687,7.12776221 C7.28507904,6.8009424 7.28507904,6.58077803 6.95679687,6.25395822 L5.72820576,5.03083994 C5.65753738,4.9604875 5.65753738,4.9604875 5.58376842,4.88670029 C5.46392837,4.76654794 5.36714647,4.6674344 5.29157449,4.58689526 C4.96502305,4.2509619 4.73642836,4.02429218 4.46939486,3.77760674 C4.31775506,3.62819876 4.18667783,3.570909 4.06431824,3.570909 C3.93445975,3.570909 3.78676663,3.63447444 3.64252282,3.77187937 L3.63802249,3.77635965 L2.10340869,5.31757829 C1.7886262,5.63095856 1.62246255,5.98519294 1.5841007,6.41688819 C1.51706181,7.22889475 1.69377346,8.06248084 2.06671876,9.06382253 C2.73271992,10.8523783 3.73268716,12.5142026 5.2394443,14.3175948 C7.06969579,16.4932969 9.2646764,18.2047262 11.759639,19.4054421 C13.0679983,20.0227286 14.0880587,20.3555305 15.1240213,20.4218927 C15.2349582,20.4271519 15.2901459,20.429091 15.3331539,20.429091 C15.9223768,20.429091 16.3663502,20.2470637 16.741422,19.8594005 C16.7613611,19.8323381 16.7759356,19.8154218 16.7913199,19.8001463 Z M16.8362654,13.922043 L19.3069486,16.390681 C19.7614823,16.8387097 20,17.3718638 20,17.9274194 C20,18.4784946 19.7659826,19.016129 19.3204496,19.4775986 C19.1269353,19.6792115 18.9289206,19.8718638 18.7354062,20.0555556 C18.4518852,20.328853 18.1818652,20.5842294 17.9478478,20.8664875 C17.9433475,20.875448 17.9343468,20.8799283 17.9298465,20.8888889 C17.2457958,21.6281362 16.372731,22 15.3331539,22 C15.2431472,22 15.1441399,21.9955197 15.0496329,21.9910394 C13.5060184,21.8924731 12.124416,21.3145161 11.0893392,20.8261649 C8.38013829,19.5224014 6.00846241,17.672043 4.03731623,15.328853 C2.41269576,13.3844086 1.32361499,11.5698925 0.594560926,9.61200717 C0.297538899,8.81451613 -0.089489802,7.59587814 0.0185182076,6.28763441 C0.0905235474,5.47670251 0.41904791,4.77777778 0.995090629,4.20430108 L2.5252041,2.66756272 L2.53420477,2.65860215 C2.98423814,2.22849462 3.51527752,2 4.06431824,2 C4.61335895,2 5.13539767,2.22849462 5.57193004,2.65860215 C5.86445173,2.92741935 6.14797276,3.21415771 6.41799278,3.49193548 C6.55300279,3.63530466 6.69701347,3.77867384 6.83652382,3.91756272 L8.06511493,5.140681 C9.01018501,6.08154122 9.01018501,7.30017921 8.06511493,8.24103943 C7.93910558,8.36648746 7.81309624,8.49641577 7.6870869,8.6218638 C7.3540622,8.9578853 7.01203683,9.30734767 6.64300947,9.64336918 C6.91752983,10.2482079 7.29555786,10.844086 7.85809958,11.5519713 C9.01918568,12.9722222 10.2297755,14.0698925 11.5618742,14.9121864 C11.6923839,14.9928315 11.8453953,15.0689964 12.0074073,15.1496416 C12.1199156,15.2078853 12.2369243,15.266129 12.353933,15.328853 L13.7760384,13.9175627 C14.2305721,13.4650538 14.7616115,13.2275986 15.3151526,13.2275986 C15.873194,13.2275986 16.399733,13.4695341 16.8362654,13.922043 Z M12.5123777,5.50661848 C12.1236574,5.37548832 11.9104029,4.94034226 12.0360604,4.53469255 C12.161718,4.12904284 12.5787037,3.90650077 12.9674241,4.03763093 C16.2656806,5.15025834 18,7.24352 18,10.2280835 C18,10.6544012 17.6688244,11 17.2602986,11 C16.8517728,11 16.5205972,10.6544012 16.5205972,10.2280835 C16.5205972,7.97123809 15.2413181,6.4271939 12.5123777,5.50661848 Z M12.6516606,1.53937555 C12.2374851,1.47970916 11.9490935,1.08845813 12.0075198,0.665491908 C12.0659461,0.242525688 12.4490655,-0.0519870197 12.863241,0.0076793655 C18.8855127,0.875251665 22,4.34498751 22,10.2265693 C22,10.6537233 21.6609202,11 21.242644,11 C20.8243678,11 20.4852879,10.6537233 20.4852879,10.2265693 C20.4852879,5.13393843 17.9429798,2.30164636 12.6516606,1.53937555 Z" id="icon-3"></path>
                </g>
            </g>
        </g>
    </g>
</svg>