<?xml version="1.0" encoding="UTF-8"?>
<svg width="24px" height="18px" viewBox="0 0 24 18" version="1.1" xmlns="http://www.w3.org/2000/svg" xmlns:xlink="http://www.w3.org/1999/xlink">
    <!-- Generator: sketchtool 52.3 (67297) - http://www.bohemiancoding.com/sketch -->
    <title>64CCFE2F-A7BD-41F8-8872-5176F27EF474@2x</title>
    <desc>Created with sketchtool.</desc>
    <g id="pages" stroke="none" stroke-width="1" fill="none" fill-rule="evenodd">
        <g id="EXTL-contact" transform="translate(-120.000000, -514.000000)" fill="#1355F3" fill-rule="nonzero">
            <g id="cont" transform="translate(120.000000, 343.000000)">
                <g id="icon" transform="translate(0.000000, 171.000000)">
                    <path d="M2,16 L22,16 L22,8.35129826 C22,7.86583182 21.7300568,7.41417211 21.2846689,7.15443069 L12.8231304,2.2198287 C12.3205328,1.92672377 11.6794672,1.92672377 11.1768696,2.2198287 L2.71533108,7.15443069 C2.26994317,7.41417211 2,7.86583182 2,8.35129826 L2,16 Z M1.48788867,5.79693081 L10.2878889,0.474235304 C11.3332917,-0.158078435 12.6667083,-0.158078435 13.7121111,0.474235304 L22.5121113,5.79693081 C23.4385182,6.35726962 24,7.33163273 24,8.37892695 L24,17.0449276 C24,17.5723995 23.5522847,18 23,18 L1,18 C0.44771525,18 -7.03779198e-15,17.5723995 -7.10542736e-15,17.0449276 L-7.10542736e-15,8.37892695 C-7.23971723e-15,7.33163273 0.561481794,6.35726962 1.48788867,5.79693081 Z M14,16 L10,16 L10,13.4651161 C10,12.6559548 10.5969536,12 11.3333332,12 L12.6666668,12 C13.4030464,12 14,12.6559548 14,13.4651161 L14,16 Z M11.1999998,10 C9.43268872,10 8,11.327344 8,12.9647057 L8,16 L16,16 L16,12.9647057 C16,11.327344 14.5673113,10 12.8000002,10 L11.1999998,10 Z" id="icon-2"></path>
                </g>
            </g>
        </g>
    </g>
</svg>