<?xml version="1.0" encoding="UTF-8"?>
<svg width="19px" height="19px" viewBox="0 0 19 19" version="1.1" xmlns="http://www.w3.org/2000/svg" xmlns:xlink="http://www.w3.org/1999/xlink">
    <!-- Generator: sketchtool 52.3 (67297) - http://www.bohemiancoding.com/sketch -->
    <title>36454B72-372A-4392-A93E-76CE9C1AEA9F@2x</title>
    <desc>Created with sketchtool.</desc>
    <g id="pages" stroke="none" stroke-width="1" fill="none" fill-rule="evenodd">
        <g id="EXTL-news" transform="translate(-119.000000, -139.000000)" fill="#1965F5" fill-rule="nonzero">
            <g id="name" transform="translate(119.000000, 139.000000)">
                <g id="Group">
                    <path d="M7,14 C3.13400675,14 0,10.8659932 0,7 C0,3.13400675 3.13400675,0 7,0 C10.8659932,0 14,3.13400675 14,7 C14,10.8659932 10.8659932,14 7,14 Z M7,12 C9.76142375,12 12,9.76142375 12,7 C12,4.23857625 9.76142375,2 7,2 C4.23857625,2 2,4.23857625 2,7 C2,9.76142375 4.23857625,12 7,12 Z M13.2928932,14.7071068 C12.9023689,14.3165825 12.9023689,13.6834175 13.2928932,13.2928932 C13.6834175,12.9023689 14.3165825,12.9023689 14.7071068,13.2928932 L18.7071068,17.2928932 C19.0976311,17.6834175 19.0976311,18.3165825 18.7071068,18.7071068 C18.3165825,19.0976311 17.6834175,19.0976311 17.2928932,18.7071068 L13.2928932,14.7071068 Z" id="search_icon"></path>
                </g>
            </g>
        </g>
    </g>
</svg>