<?xml version="1.0" encoding="UTF-8"?>
<svg width="339px" height="30px" viewBox="0 0 339 30" version="1.1" xmlns="http://www.w3.org/2000/svg" xmlns:xlink="http://www.w3.org/1999/xlink">
    <!-- Generator: Sketch 52.3 (67297) - http://www.bohemiancoding.com/sketch -->
    <title>SoftPay Logic</title>
    <desc>Created with Sketch.</desc>
    <g id="pages" stroke="none" stroke-width="1" fill="none" fill-rule="evenodd">
        <g id="EXTL-about-us" transform="translate(-181.000000, -4186.000000)" fill="#FFFFFF">
            <g id="footer" transform="translate(0.000000, 4117.000000)">
                <path d="M193.64,98.56 C191.373322,98.56 189.173344,98.2800028 187.04,97.72 C184.906656,97.1599972 183.17334,96.413338 181.84,95.48 L184.44,89.64 C185.69334,90.4666708 187.146658,91.1333308 188.8,91.64 C190.453342,92.1466692 192.079992,92.4 193.68,92.4 C196.720015,92.4 198.24,91.6400076 198.24,90.12 C198.24,89.319996 197.806671,88.7266686 196.94,88.34 C196.073329,87.9533314 194.68001,87.5466688 192.76,87.12 C190.653323,86.6666644 188.89334,86.1800026 187.48,85.66 C186.06666,85.1399974 184.853338,84.3066724 183.84,83.16 C182.826662,82.0133276 182.32,80.4666764 182.32,78.52 C182.32,76.8133248 182.786662,75.2733402 183.72,73.9 C184.653338,72.5266598 186.046657,71.440004 187.9,70.64 C189.753343,69.839996 192.026653,69.44 194.72,69.44 C196.560009,69.44 198.373324,69.6466646 200.16,70.06 C201.946676,70.4733354 203.519993,71.079996 204.88,71.88 L202.44,77.76 C199.77332,76.3199928 197.186679,75.6 194.68,75.6 C193.106659,75.6 191.960004,75.833331 191.24,76.3 C190.519996,76.766669 190.16,77.3733296 190.16,78.12 C190.16,78.8666704 190.586662,79.4266648 191.44,79.8 C192.293338,80.1733352 193.666657,80.559998 195.56,80.96 C197.693344,81.4133356 199.459993,81.8999974 200.86,82.42 C202.260007,82.9400026 203.473328,83.766661 204.5,84.9 C205.526672,86.033339 206.04,87.5733236 206.04,89.52 C206.04,91.2000084 205.573338,92.7199932 204.64,94.08 C203.706662,95.4400068 202.306676,96.5266626 200.44,97.34 C198.573324,98.1533374 196.30668,98.56 193.64,98.56 Z M223.8,98.56 C220.839985,98.56 218.180012,97.9333396 215.82,96.68 C213.459988,95.4266604 211.606673,93.6933444 210.26,91.48 C208.913327,89.2666556 208.24,86.7733472 208.24,84 C208.24,81.2266528 208.913327,78.7333444 210.26,76.52 C211.606673,74.3066556 213.459988,72.5733396 215.82,71.32 C218.180012,70.0666604 220.839985,69.44 223.8,69.44 C226.760015,69.44 229.419988,70.0666604 231.78,71.32 C234.140012,72.5733396 235.993327,74.3066556 237.34,76.52 C238.686673,78.7333444 239.36,81.2266528 239.36,84 C239.36,86.7733472 238.686673,89.2666556 237.34,91.48 C235.993327,93.6933444 234.140012,95.4266604 231.78,96.68 C229.419988,97.9333396 226.760015,98.56 223.8,98.56 Z M223.8,92 C225.21334,92 226.493328,91.66667 227.64,91 C228.786672,90.33333 229.69333,89.3933394 230.36,88.18 C231.02667,86.9666606 231.36,85.5733412 231.36,84 C231.36,82.4266588 231.02667,81.0333394 230.36,79.82 C229.69333,78.6066606 228.786672,77.66667 227.64,77 C226.493328,76.33333 225.21334,76 223.8,76 C222.38666,76 221.106672,76.33333 219.96,77 C218.813328,77.66667 217.90667,78.6066606 217.24,79.82 C216.57333,81.0333394 216.24,82.4266588 216.24,84 C216.24,85.5733412 216.57333,86.9666606 217.24,88.18 C217.90667,89.3933394 218.813328,90.33333 219.96,91 C221.106672,91.66667 222.38666,92 223.8,92 Z M251.44,76.12 L251.44,82.28 L263.8,82.28 L263.8,88.4 L251.44,88.4 L251.44,98 L243.52,98 L243.52,70 L265.48,70 L265.48,76.12 L251.44,76.12 Z M275.36,76.28 L266.76,76.28 L266.76,70 L291.84,70 L291.84,76.28 L283.28,76.28 L283.28,98 L275.36,98 L275.36,76.28 Z M307.6,70 C310.133346,70 312.333324,70.4199958 314.2,71.26 C316.066676,72.1000042 317.506662,73.2999922 318.52,74.86 C319.533338,76.4200078 320.04,78.2533228 320.04,80.36 C320.04,82.4666772 319.533338,84.2933256 318.52,85.84 C317.506662,87.3866744 316.066676,88.5799958 314.2,89.42 C312.333324,90.2600042 310.133346,90.68 307.6,90.68 L302.72,90.68 L302.72,98 L294.8,98 L294.8,70 L307.6,70 Z M307.12,84.44 C308.746675,84.44 309.973329,84.0866702 310.8,83.38 C311.626671,82.6733298 312.04,81.6666732 312.04,80.36 C312.04,79.0533268 311.626671,78.0400036 310.8,77.32 C309.973329,76.5999964 308.746675,76.24 307.12,76.24 L302.72,76.24 L302.72,84.44 L307.12,84.44 Z M341.24,92.56 L329.4,92.56 L327.2,98 L319.12,98 L331.48,70 L339.28,70 L351.68,98 L343.44,98 L341.24,92.56 Z M338.92,86.72 L335.32,77.76 L331.72,86.72 L338.92,86.72 Z M367.16,87.96 L367.16,98 L359.24,98 L359.24,87.84 L348.56,70 L356.92,70 L363.56,81.12 L370.2,70 L377.88,70 L367.16,87.96 Z M391.52,70 L399.44,70 L399.44,91.72 L412.8,91.72 L412.8,98 L391.52,98 L391.52,70 Z M429.6,98.56 C426.639985,98.56 423.980012,97.9333396 421.62,96.68 C419.259988,95.4266604 417.406673,93.6933444 416.06,91.48 C414.713327,89.2666556 414.04,86.7733472 414.04,84 C414.04,81.2266528 414.713327,78.7333444 416.06,76.52 C417.406673,74.3066556 419.259988,72.5733396 421.62,71.32 C423.980012,70.0666604 426.639985,69.44 429.6,69.44 C432.560015,69.44 435.219988,70.0666604 437.58,71.32 C439.940012,72.5733396 441.793327,74.3066556 443.14,76.52 C444.486673,78.7333444 445.16,81.2266528 445.16,84 C445.16,86.7733472 444.486673,89.2666556 443.14,91.48 C441.793327,93.6933444 439.940012,95.4266604 437.58,96.68 C435.219988,97.9333396 432.560015,98.56 429.6,98.56 Z M429.6,92 C431.01334,92 432.293328,91.66667 433.44,91 C434.586672,90.33333 435.49333,89.3933394 436.16,88.18 C436.82667,86.9666606 437.16,85.5733412 437.16,84 C437.16,82.4266588 436.82667,81.0333394 436.16,79.82 C435.49333,78.6066606 434.586672,77.66667 433.44,77 C432.293328,76.33333 431.01334,76 429.6,76 C428.18666,76 426.906672,76.33333 425.76,77 C424.613328,77.66667 423.70667,78.6066606 423.04,79.82 C422.37333,81.0333394 422.04,82.4266588 422.04,84 C422.04,85.5733412 422.37333,86.9666606 423.04,88.18 C423.70667,89.3933394 424.613328,90.33333 425.76,91 C426.906672,91.66667 428.18666,92 429.6,92 Z M468.08,83.4 L475.08,83.4 L475.08,95 C473.479992,96.1466724 471.64001,97.0266636 469.56,97.64 C467.47999,98.2533364 465.40001,98.56 463.32,98.56 C460.386652,98.56 457.746678,97.9400062 455.4,96.7 C453.053322,95.4599938 451.21334,93.7333444 449.88,91.52 C448.54666,89.3066556 447.88,86.800014 447.88,84 C447.88,81.199986 448.54666,78.6933444 449.88,76.48 C451.21334,74.2666556 453.066655,72.5400062 455.44,71.3 C457.813345,70.0599938 460.493318,69.44 463.48,69.44 C466.093346,69.44 468.43999,69.8799956 470.52,70.76 C472.60001,71.6400044 474.333326,72.9066584 475.72,74.56 L470.68,79.12 C468.786657,77.0399896 466.520013,76 463.88,76 C461.479988,76 459.546674,76.7266594 458.08,78.18 C456.613326,79.6333406 455.88,81.5733212 455.88,84 C455.88,85.5466744 456.21333,86.9266606 456.88,88.14 C457.54667,89.3533394 458.479994,90.2999966 459.68,90.98 C460.880006,91.6600034 462.253326,92 463.8,92 C465.320008,92 466.74666,91.6933364 468.08,91.08 L468.08,83.4 Z M480.12,70 L488.04,70 L488.04,98 L480.12,98 L480.12,70 Z M507.64,98.56 C504.706652,98.56 502.073345,97.9400062 499.74,96.7 C497.406655,95.4599938 495.57334,93.7333444 494.24,91.52 C492.90666,89.3066556 492.24,86.800014 492.24,84 C492.24,81.199986 492.90666,78.6933444 494.24,76.48 C495.57334,74.2666556 497.406655,72.5400062 499.74,71.3 C502.073345,70.0599938 504.706652,69.44 507.64,69.44 C510.200013,69.44 512.506656,69.8933288 514.56,70.8 C516.613344,71.7066712 518.319993,73.0133248 519.68,74.72 L514.64,79.28 C512.826658,77.0933224 510.62668,76 508.04,76 C506.519992,76 505.166673,76.33333 503.98,77 C502.793327,77.66667 501.873337,78.6066606 501.22,79.82 C500.566663,81.0333394 500.24,82.4266588 500.24,84 C500.24,85.5733412 500.566663,86.9666606 501.22,88.18 C501.873337,89.3933394 502.793327,90.33333 503.98,91 C505.166673,91.66667 506.519992,92 508.04,92 C510.62668,92 512.826658,90.9066776 514.64,88.72 L519.68,93.28 C518.319993,94.9866752 516.613344,96.2933288 514.56,97.2 C512.506656,98.1066712 510.200013,98.56 507.64,98.56 Z" id="SoftPay-Logic"></path>
            </g>
        </g>
    </g>
</svg>