<?xml version="1.0" encoding="UTF-8"?>
<svg width="116px" height="43px" viewBox="0 0 116 43" version="1.1" xmlns="http://www.w3.org/2000/svg" xmlns:xlink="http://www.w3.org/1999/xlink">
    <!-- Generator: sketchtool 55 (78076) - https://sketchapp.com -->
    <title>6CD74055-89A1-4FA7-9E45-ACDAC3E1B710@2x</title>
    <desc>Created with sketchtool.</desc>
    <g id="clinup" stroke="none" stroke-width="1" fill="none" fill-rule="evenodd">
        <g id="emcsy-signin" transform="translate(-158.000000, -38.000000)">
            <g id="hero-page" transform="translate(158.000000, 22.000000)">
                <g id="logo" transform="translate(0.000000, 16.000000)">
                    <path d="M21.9421687,0.73516129 L21.9421687,6.51935484 L7.3513253,6.51935484 L7.3513253,12.5116129 L20.4746988,12.5116129 L20.4746988,18.046129 L7.3513253,18.046129 L7.3513253,24.08 L22.4033735,24.08 L22.4033735,29.8225806 L0.81060241,29.8225806 L0.81060241,0.73516129 L21.9421687,0.73516129 Z M54.4780723,11.5129032 L46.5537349,27.4090323 L42.6544578,27.4090323 L34.7720482,11.5129032 L34.7720482,29.8225806 L28.2313253,29.8225806 L28.2313253,0.73516129 L37.0780723,0.73516129 L44.6250602,16.7145161 L52.2139759,0.73516129 L61.0187952,0.73516129 L61.0187952,29.8225806 L54.4780723,29.8225806 L54.4780723,11.5129032 Z M81.6891566,24.08 C84.9036305,24.08 87.5310741,22.8177546 89.5715663,20.2932258 L93.7643373,24.5793548 C90.4380557,28.2967928 86.5178539,30.1554839 82.0036145,30.1554839 C77.489375,30.1554839 73.7718218,28.7406593 70.8508434,25.9109677 C67.9298649,23.0812762 66.4693976,19.5095377 66.4693976,15.1956452 C66.4693976,10.8817526 67.9578164,7.28227249 70.9346988,4.39709677 C73.9115811,1.51192106 77.5522676,0.0693548387 81.8568675,0.0693548387 C86.6646024,0.0693548387 90.6896223,1.88643344 93.9320482,5.52064516 L89.8650602,10.0980645 C87.7966162,7.54579369 85.2250756,6.26967742 82.1503614,6.26967742 C79.6905901,6.26967742 77.5872377,7.06725009 75.840241,8.66241935 C74.0932443,10.2575886 73.219759,12.4075671 73.219759,15.1124194 C73.219759,17.8172716 74.0443291,19.9880563 75.693494,21.6248387 C77.3426588,23.2616211 79.3411931,24.08 81.6891566,24.08 Z" id="EMC" fill="#F8E71C"></path>
                    <path d="M100.85012,30.0167742 C100.058149,30.0167742 99.2894816,29.9196784 98.5440964,29.7254839 C97.7987111,29.5312894 97.1930947,29.2723672 96.7272289,28.9487097 L97.6356627,26.9235484 C98.0735765,27.2102165 98.5813626,27.441397 99.1590361,27.6170968 C99.7367097,27.7927966 100.305057,27.8806452 100.864096,27.8806452 C101.92627,27.8806452 102.457349,27.6170994 102.457349,27.09 C102.457349,26.8125793 102.305945,26.6068286 102.003133,26.4727419 C101.70032,26.3386552 101.213497,26.1976351 100.542651,26.0496774 C99.8065827,25.8924723 99.1916491,25.7237106 98.6978313,25.5433871 C98.2040136,25.3630636 97.7800821,25.074088 97.4260241,24.6764516 C97.0719661,24.2788152 96.8949398,23.7424765 96.8949398,23.0674194 C96.8949398,22.4755884 97.0579903,21.9415615 97.3840964,21.4653226 C97.7102024,20.9890836 98.1970249,20.6122595 98.8445783,20.3348387 C99.4921318,20.057418 100.286421,19.9187097 101.22747,19.9187097 C101.870365,19.9187097 102.503933,19.9903756 103.128193,20.1337097 C103.752453,20.2770437 104.302166,20.487418 104.777349,20.7648387 L103.924819,22.803871 C102.993088,22.3045136 102.089322,22.0548387 101.213494,22.0548387 C100.663772,22.0548387 100.263134,22.1357519 100.011566,22.2975806 C99.7599987,22.4594094 99.6342169,22.6697837 99.6342169,22.9287097 C99.6342169,23.1876357 99.7832917,23.3818273 100.081446,23.5112903 C100.3796,23.6407533 100.859434,23.774838 101.520964,23.9135484 C102.266349,24.0707535 102.883612,24.2395152 103.372771,24.4198387 C103.86193,24.6001622 104.285862,24.886826 104.644578,25.2798387 C105.003295,25.6728514 105.182651,26.2068783 105.182651,26.8819355 C105.182651,27.464519 105.0196,27.9916105 104.693494,28.4632258 C104.367388,28.9348411 103.878236,29.3116653 103.226024,29.5937097 C102.573812,29.8757541 101.781852,30.0167742 100.85012,30.0167742 Z M111.695422,26.3409677 L111.695422,29.8225806 L108.928193,29.8225806 L108.928193,26.2993548 L105.196627,20.1129032 L108.11759,20.1129032 L110.43759,23.9690323 L112.75759,20.1129032 L115.440964,20.1129032 L111.695422,26.3409677 Z" id="sy" fill="#231F20"></path>
                    <path d="M4.41638554,41.2453226 L4.41638554,42.3064516 L0.489156627,42.3064516 L0.489156627,37.4516129 L4.32554217,37.4516129 L4.32554217,38.5127419 L1.85879518,38.5127419 L1.85879518,39.331129 L4.03204819,39.331129 L4.03204819,40.3575806 L1.85879518,40.3575806 L1.85879518,41.2453226 L4.41638554,41.2453226 Z M5.17108434,39.8235484 L7.21156627,39.8235484 L7.21156627,40.836129 L5.17108434,40.836129 L5.17108434,39.8235484 Z M12.7320482,42.3064516 L12.7180723,39.7333871 L11.460241,41.8279032 L10.8453012,41.8279032 L9.59445784,39.8027419 L9.59445784,42.3064516 L8.31566266,42.3064516 L8.31566266,37.4516129 L9.4546988,37.4516129 L11.1737349,40.2535484 L12.8508434,37.4516129 L13.9898795,37.4516129 L14.0038554,42.3064516 L12.7320482,42.3064516 Z M18.5390362,41.3632258 L16.4706024,41.3632258 L16.0862651,42.3064516 L14.6746988,42.3064516 L16.8339759,37.4516129 L18.1966265,37.4516129 L20.3628916,42.3064516 L18.9233735,42.3064516 L18.5390362,41.3632258 Z M18.133735,40.3506452 L17.5048193,38.7970968 L16.8759036,40.3506452 L18.133735,40.3506452 Z M23.1720482,41.0164516 L22.4173494,41.0164516 L22.4173494,42.3064516 L21.033735,42.3064516 L21.033735,37.4516129 L23.2698795,37.4516129 C23.712452,37.4516129 24.0967855,37.5244348 24.4228916,37.6700806 C24.7489976,37.8157265 25.0005614,38.023789 25.1775904,38.2942742 C25.3546194,38.5647594 25.4431325,38.8826326 25.4431325,39.2479032 C25.4431325,39.5993028 25.3604426,39.905617 25.1950603,40.1668548 C25.0296779,40.4280927 24.7932546,40.6326874 24.4857831,40.7806452 L25.5409639,42.3064516 L24.0595181,42.3064516 L23.1720482,41.0164516 Z M24.0455422,39.2479032 C24.0455422,39.021343 23.9733341,38.8456458 23.8289157,38.7208065 C23.6844973,38.5959671 23.4702022,38.5335484 23.1860241,38.5335484 L22.4173494,38.5335484 L22.4173494,39.9553226 L23.1860241,39.9553226 C23.4702022,39.9553226 23.6844973,39.8940598 23.8289157,39.7715323 C23.9733341,39.6490048 24.0455422,39.4744635 24.0455422,39.2479032 Z M28.3710844,40.5448387 L27.8539759,41.0927419 L27.8539759,42.3064516 L26.4843374,42.3064516 L26.4843374,37.4516129 L27.8539759,37.4516129 L27.8539759,39.4698387 L29.7477109,37.4516129 L31.2710844,37.4516129 L29.2725301,39.6016129 L31.3759036,42.3064516 L29.7686747,42.3064516 L28.3710844,40.5448387 Z M35.9460241,41.2453226 L35.9460241,42.3064516 L32.0187952,42.3064516 L32.0187952,37.4516129 L35.8551807,37.4516129 L35.8551807,38.5127419 L33.3884338,38.5127419 L33.3884338,39.331129 L35.5616868,39.331129 L35.5616868,40.3575806 L33.3884338,40.3575806 L33.3884338,41.2453226 L35.9460241,41.2453226 Z M38.0354217,38.5404839 L36.5330121,38.5404839 L36.5330121,37.4516129 L40.9144579,37.4516129 L40.9144579,38.5404839 L39.4190362,38.5404839 L39.4190362,42.3064516 L38.0354217,42.3064516 L38.0354217,38.5404839 Z M46.4628916,42.4035484 C45.9504392,42.4035484 45.4904037,42.2960495 45.0827711,42.0810484 C44.6751386,41.8660473 44.3548606,41.5666686 44.1219277,41.1829032 C43.8889949,40.7991379 43.7725302,40.3645186 43.7725302,39.8790323 C43.7725302,39.393546 43.8889949,38.9589267 44.1219277,38.5751613 C44.3548606,38.1913959 44.6751386,37.8920172 45.0827711,37.6770161 C45.4904037,37.4620151 45.9504392,37.3545161 46.4628916,37.3545161 C46.9101228,37.3545161 47.3130906,37.4331175 47.6718073,37.5903226 C48.0305239,37.7475277 48.3286735,37.9740845 48.5662651,38.27 L47.6857832,39.0606452 C47.3689944,38.6815035 46.9846609,38.4919355 46.5327711,38.4919355 C46.2672276,38.4919355 46.0308043,38.5497306 45.823494,38.6653226 C45.6161837,38.7809146 45.4554625,38.9438968 45.3413253,39.1542742 C45.2271882,39.3646516 45.1701205,39.6062352 45.1701205,39.8790323 C45.1701205,40.1518293 45.2271882,40.3934129 45.3413253,40.6037903 C45.4554625,40.8141677 45.6161837,40.97715 45.823494,41.0927419 C46.0308043,41.2083339 46.2672276,41.266129 46.5327711,41.266129 C46.9846609,41.266129 47.3689944,41.076561 47.6857832,40.6974194 L48.5662651,41.4880645 C48.3286735,41.78398 48.0305239,42.0105368 47.6718073,42.1677419 C47.3130906,42.324947 46.9101228,42.4035484 46.4628916,42.4035484 Z M52.060241,40.5656452 L52.060241,42.3064516 L50.6766265,42.3064516 L50.6766265,40.5448387 L48.8108434,37.4516129 L50.2713253,37.4516129 L51.4313253,39.3796774 L52.5913253,37.4516129 L53.9330121,37.4516129 L52.060241,40.5656452 Z M56.7910844,42.4035484 C56.278632,42.4035484 55.8185965,42.2960495 55.4109639,42.0810484 C55.0033313,41.8660473 54.6830534,41.5666686 54.4501205,41.1829032 C54.2171876,40.7991379 54.1007229,40.3645186 54.1007229,39.8790323 C54.1007229,39.393546 54.2171876,38.9589267 54.4501205,38.5751613 C54.6830534,38.1913959 55.0033313,37.8920172 55.4109639,37.6770161 C55.8185965,37.4620151 56.278632,37.3545161 56.7910844,37.3545161 C57.2383155,37.3545161 57.6412834,37.4331175 58,37.5903226 C58.3587167,37.7475277 58.6568663,37.9740845 58.8944579,38.27 L58.0139759,39.0606452 C57.6971872,38.6815035 57.3128537,38.4919355 56.8609639,38.4919355 C56.5954204,38.4919355 56.3589971,38.5497306 56.1516868,38.6653226 C55.9443765,38.7809146 55.7836552,38.9438968 55.6695181,39.1542742 C55.555381,39.3646516 55.4983133,39.6062352 55.4983133,39.8790323 C55.4983133,40.1518293 55.555381,40.3934129 55.6695181,40.6037903 C55.7836552,40.8141677 55.9443765,40.97715 56.1516868,41.0927419 C56.3589971,41.2083339 56.5954204,41.266129 56.8609639,41.266129 C57.3128537,41.266129 57.6971872,41.076561 58.0139759,40.6974194 L58.8944579,41.4880645 C58.6568663,41.78398 58.3587167,42.0105368 58,42.1677419 C57.6412834,42.324947 57.2383155,42.4035484 56.7910844,42.4035484 Z M59.7889157,37.4516129 L61.1725302,37.4516129 L61.1725302,41.2175806 L63.5065061,41.2175806 L63.5065061,42.3064516 L59.7889157,42.3064516 L59.7889157,37.4516129 Z M64.3310844,37.4516129 L65.7146988,37.4516129 L65.7146988,42.3064516 L64.3310844,42.3064516 L64.3310844,37.4516129 Z M69.4183133,42.4035484 C68.9058609,42.4035484 68.4458254,42.2960495 68.0381928,42.0810484 C67.6305603,41.8660473 67.3102823,41.5666686 67.0773495,41.1829032 C66.8444166,40.7991379 66.7279519,40.3645186 66.7279519,39.8790323 C66.7279519,39.393546 66.8444166,38.9589267 67.0773495,38.5751613 C67.3102823,38.1913959 67.6305603,37.8920172 68.0381928,37.6770161 C68.4458254,37.4620151 68.9058609,37.3545161 69.4183133,37.3545161 C69.8655445,37.3545161 70.2685123,37.4331175 70.627229,37.5903226 C70.9859456,37.7475277 71.2840953,37.9740845 71.5216868,38.27 L70.6412049,39.0606452 C70.3244161,38.6815035 69.9400826,38.4919355 69.4881928,38.4919355 C69.2226493,38.4919355 68.986226,38.5497306 68.7789157,38.6653226 C68.5716054,38.7809146 68.4108842,38.9438968 68.296747,39.1542742 C68.1826099,39.3646516 68.1255422,39.6062352 68.1255422,39.8790323 C68.1255422,40.1518293 68.1826099,40.3934129 68.296747,40.6037903 C68.4108842,40.8141677 68.5716054,40.97715 68.7789157,41.0927419 C68.986226,41.2083339 69.2226493,41.266129 69.4881928,41.266129 C69.9400826,41.266129 70.3244161,41.076561 70.6412049,40.6974194 L71.5216868,41.4880645 C71.2840953,41.78398 70.9859456,42.0105368 70.627229,42.1677419 C70.2685123,42.324947 69.8655445,42.4035484 69.4183133,42.4035484 Z M75.6096386,41.3632258 L73.5412049,41.3632258 L73.1568675,42.3064516 L71.7453013,42.3064516 L73.9045784,37.4516129 L75.267229,37.4516129 L77.433494,42.3064516 L75.993976,42.3064516 L75.6096386,41.3632258 Z M75.2043374,40.3506452 L74.5754217,38.7970968 L73.9465061,40.3506452 L75.2043374,40.3506452 Z M78.1043374,37.4516129 L79.4879519,37.4516129 L79.4879519,41.2175806 L81.8219278,41.2175806 L81.8219278,42.3064516 L78.1043374,42.3064516 L78.1043374,37.4516129 Z M86.6785543,42.4035484 C86.2825684,42.4035484 85.8982349,42.3550005 85.5255422,42.2579032 C85.1528496,42.160806 84.8500414,42.0313449 84.6171085,41.8695161 L85.0713254,40.8569355 C85.2902823,41.0002695 85.5441753,41.1158598 85.8330121,41.2037097 C86.1218489,41.2915596 86.4060228,41.3354839 86.6855422,41.3354839 C87.2166292,41.3354839 87.4821687,41.203711 87.4821687,40.9401613 C87.4821687,40.8014509 87.4064667,40.6985756 87.2550603,40.6315323 C87.1036539,40.5644889 86.8602427,40.4939789 86.5248194,40.42 C86.1567854,40.3413975 85.8493186,40.2570166 85.6024097,40.1668548 C85.3555008,40.0766931 85.1435351,39.9322053 84.9665061,39.7333871 C84.7894771,39.5345689 84.7009639,39.2663995 84.7009639,38.928871 C84.7009639,38.6329555 84.7824892,38.3659421 84.9455422,38.1278226 C85.1085953,37.8897031 85.3520065,37.701291 85.6757832,37.5625806 C85.9995599,37.4238703 86.3967045,37.3545161 86.867229,37.3545161 C87.1886764,37.3545161 87.5054604,37.3903491 87.8175904,37.4620161 C88.1297205,37.5336832 88.4045772,37.6388703 88.6421687,37.7775806 L88.2159037,38.7970968 C87.7500379,38.5474181 87.2981549,38.4225806 86.860241,38.4225806 C86.5853802,38.4225806 86.3850609,38.4630372 86.2592772,38.5439516 C86.1334934,38.624866 86.0706025,38.7300531 86.0706025,38.8595161 C86.0706025,38.9889791 86.1451399,39.0860749 86.2942169,39.1508065 C86.443294,39.215538 86.6832113,39.2825803 87.013976,39.3519355 C87.3866686,39.430538 87.6953001,39.5149189 87.9398796,39.6050806 C88.1844591,39.6952424 88.3964249,39.8385743 88.5757832,40.0350806 C88.7551415,40.231587 88.8448194,40.4986005 88.8448194,40.836129 C88.8448194,41.1274208 88.7632941,41.3909666 88.600241,41.6267742 C88.437188,41.8625818 88.1926121,42.0509939 87.8665061,42.1920161 C87.5404001,42.3330383 87.1444201,42.4035484 86.6785543,42.4035484 Z M92.2759037,40.5656452 L92.2759037,42.3064516 L90.8922892,42.3064516 L90.8922892,40.5448387 L89.0265061,37.4516129 L90.486988,37.4516129 L91.646988,39.3796774 L92.806988,37.4516129 L94.1486748,37.4516129 L92.2759037,40.5656452 Z M96.3918073,42.4035484 C95.9958214,42.4035484 95.6114879,42.3550005 95.2387953,42.2579032 C94.8661026,42.160806 94.5632944,42.0313449 94.3303615,41.8695161 L94.7845784,40.8569355 C95.0035353,41.0002695 95.2574284,41.1158598 95.5462651,41.2037097 C95.8351019,41.2915596 96.1192758,41.3354839 96.3987953,41.3354839 C96.9298823,41.3354839 97.1954218,41.203711 97.1954218,40.9401613 C97.1954218,40.8014509 97.1197197,40.6985756 96.9683133,40.6315323 C96.816907,40.5644889 96.5734957,40.4939789 96.2380724,40.42 C95.8700384,40.3413975 95.5625716,40.2570166 95.3156627,40.1668548 C95.0687539,40.0766931 94.8567881,39.9322053 94.6797591,39.7333871 C94.5027301,39.5345689 94.414217,39.2663995 94.414217,38.928871 C94.414217,38.6329555 94.4957422,38.3659421 94.6587953,38.1278226 C94.8218483,37.8897031 95.0652595,37.701291 95.3890362,37.5625806 C95.7128129,37.4238703 96.1099576,37.3545161 96.580482,37.3545161 C96.9019294,37.3545161 97.2187134,37.3903491 97.5308435,37.4620161 C97.8429735,37.5336832 98.1178302,37.6388703 98.3554218,37.7775806 L97.9291567,38.7970968 C97.4632909,38.5474181 97.0114079,38.4225806 96.5734941,38.4225806 C96.2986332,38.4225806 96.098314,38.4630372 95.9725302,38.5439516 C95.8467464,38.624866 95.7838555,38.7300531 95.7838555,38.8595161 C95.7838555,38.9889791 95.8583929,39.0860749 96.00747,39.1508065 C96.156547,39.215538 96.3964643,39.2825803 96.727229,39.3519355 C97.0999216,39.430538 97.4085531,39.5149189 97.6531326,39.6050806 C97.8977121,39.6952424 98.1096779,39.8385743 98.2890362,40.0350806 C98.4683946,40.231587 98.5580724,40.4986005 98.5580724,40.836129 C98.5580724,41.1274208 98.4765471,41.3909666 98.3134941,41.6267742 C98.150441,41.8625818 97.9058652,42.0509939 97.5797591,42.1920161 C97.2536531,42.3330383 96.8576731,42.4035484 96.3918073,42.4035484 Z M100.444819,38.5404839 L98.9424097,38.5404839 L98.9424097,37.4516129 L103.323856,37.4516129 L103.323856,38.5404839 L101.828434,38.5404839 L101.828434,42.3064516 L100.444819,42.3064516 L100.444819,38.5404839 Z M108.047711,41.2453226 L108.047711,42.3064516 L104.120482,42.3064516 L104.120482,37.4516129 L107.956868,37.4516129 L107.956868,38.5127419 L105.490121,38.5127419 L105.490121,39.331129 L107.663374,39.331129 L107.663374,40.3575806 L105.490121,40.3575806 L105.490121,41.2453226 L108.047711,41.2453226 Z M113.512289,42.3064516 L113.498313,39.7333871 L112.240482,41.8279032 L111.625542,41.8279032 L110.374699,39.8027419 L110.374699,42.3064516 L109.095904,42.3064516 L109.095904,37.4516129 L110.23494,37.4516129 L111.953976,40.2535484 L113.631084,37.4516129 L114.770121,37.4516129 L114.784096,42.3064516 L113.512289,42.3064516 Z" id="E-MARKET-CYCLICAL-SY" fill="#231F20"></path>
                </g>
            </g>
        </g>
    </g>
</svg>